<?xml version="1.0" encoding="utf-8"?>
<!-- Generator: Adobe Illustrator 24.2.0, SVG Export Plug-In . SVG Version: 6.00 Build 0)  -->
<svg version="1.1" xmlns="http://www.w3.org/2000/svg" xmlns:xlink="http://www.w3.org/1999/xlink" x="0px" y="0px"
	 viewBox="0 0 283.46 283.46" style="enable-background:new 0 0 283.46 283.46;" xml:space="preserve">
<style type="text/css">
	.st0{fill:none;}
	.st1{fill:#00B934;}
	.st2{display:none;}
	.st3{display:inline;}
	.st4{fill:#FFFFFF;}
	.st5{fill:url(#XMLID_6_);}
	.st6{fill:none;stroke:#FFFFFF;stroke-width:0.5;stroke-miterlimit:10;}
	.st7{fill:none;stroke:#FFFFFF;stroke-width:2.5;stroke-miterlimit:10;}
	.st8{fill:none;stroke:#FFFFFF;stroke-width:3;stroke-miterlimit:10;}
	.st9{fill:none;stroke:#FFFFFF;stroke-width:3.5;stroke-miterlimit:10;}
	.st10{fill:none;stroke:#FFFFFF;stroke-miterlimit:10;}
	.st11{fill:none;stroke:#FFFFFF;stroke-width:2;stroke-miterlimit:10;}
	.st12{fill:none;stroke:#FFFFFF;stroke-width:4;stroke-miterlimit:10;}
	.st13{fill:none;stroke:#FFFFFF;stroke-width:0.75;stroke-miterlimit:10;}
	.st14{fill:none;stroke:#FFFFFF;stroke-width:5;stroke-miterlimit:10;}
	.st15{fill:#FFED00;}
	.st16{clip-path:url(#SVGID_2_);}
	.st17{fill:url(#XMLID_7_);}
	.st18{fill:url(#SVGID_3_);}
	.st19{fill:#FFFF00;}
	.st20{font-family:'Nexa-Trial-Regular';}
	.st21{font-size:34px;}
</style>
<pattern  y="-14.18" width="32.5" height="32.5" patternUnits="userSpaceOnUse" id="Nouvelle_nuance_de_motif_4" viewBox="0 -32.5 32.5 32.5" style="overflow:visible;">
	<g id="XMLID_12_">
		<rect id="XMLID_14_" y="-32.5" class="st0" width="32.5" height="32.5"/>
		<rect id="XMLID_13_" y="-32.5" class="st1" width="32.5" height="32.5"/>
	</g>
</pattern>
<g id="BG" class="st2">
	<rect id="XMLID_2_" class="st3" width="283.46" height="283.46"/>
</g>
<g id="Layer_6">
	<polygon id="XMLID_1_" class="st4" points="18.99,70.86 141.73,0 264.47,70.86 264.47,212.6 141.73,283.46 18.99,212.6 	"/>
</g>
<g id="fond">
	<g id="XMLID_137_">
		<linearGradient id="XMLID_6_" gradientUnits="userSpaceOnUse" x1="141.7323" y1="157.4868" x2="141.7323" y2="56.0869">
			<stop  offset="0" style="stop-color:#E71D73"/>
			<stop  offset="0.2768" style="stop-color:#E5144F"/>
			<stop  offset="0.5779" style="stop-color:#E40D2E"/>
			<stop  offset="0.8298" style="stop-color:#E3081A"/>
			<stop  offset="1" style="stop-color:#E30613"/>
		</linearGradient>
		<polygon id="XMLID_138_" class="st5" points="25.13,74.41 141.73,7.08 258.34,74.41 258.34,209.05 141.73,276.38 25.13,209.05 		
			"/>
	</g>
</g>
<g id="graph">
	<g>
		<g>
			<line class="st6" x1="62.52" y1="106.04" x2="145.91" y2="151.19"/>
			<line class="st7" x1="53.07" y1="191.06" x2="200.4" y2="96.11"/>
			<line class="st8" x1="137.97" y1="243.02" x2="145.91" y2="151.19"/>
			<line class="st7" x1="141.8" y1="73.11" x2="145.91" y2="151.19"/>
			<line class="st9" x1="62.52" y1="106.04" x2="141.8" y2="73.11"/>
			<line class="st10" x1="200.4" y1="96.11" x2="141.8" y2="73.11"/>
			<line class="st11" x1="236.9" y1="145.9" x2="200.4" y2="96.11"/>
			<line class="st10" x1="219.34" y1="208.39" x2="236.9" y2="144.29"/>
			<line class="st10" x1="145.91" y1="151.19" x2="200.4" y2="96.11"/>
			<line class="st8" x1="137.97" y1="243.02" x2="219.34" y2="208.39"/>
			<line class="st12" x1="53.07" y1="191.06" x2="137.97" y2="243.02"/>
			<line class="st11" x1="62.52" y1="106.04" x2="53.07" y2="191.06"/>
			<line class="st8" x1="137.97" y1="243.02" x2="62.52" y2="106.04"/>
			<line class="st6" x1="200.4" y1="96.11" x2="219.34" y2="208.39"/>
			<line class="st13" x1="144.88" y1="150.6" x2="219.34" y2="208.39"/>
			<line class="st10" x1="236.9" y1="144.29" x2="137.97" y2="243.02"/>
			<line class="st12" x1="53.07" y1="191.06" x2="220.95" y2="208.39"/>
			<line class="st12" x1="62.52" y1="104.58" x2="200.4" y2="96.11"/>
			<line class="st10" x1="236.9" y1="144.29" x2="145.58" y2="151.19"/>
			<line class="st10" x1="53.07" y1="191.06" x2="147.98" y2="151.02"/>
			<line class="st14" x1="200.4" y1="96.11" x2="137.97" y2="243.02"/>
			<line class="st11" x1="53.07" y1="191.06" x2="141.8" y2="73.11"/>
		</g>
		<circle class="st15" cx="62.52" cy="106.04" r="6.9"/>
		<circle class="st15" cx="200.4" cy="96.11" r="6.9"/>
		<circle class="st15" cx="219.34" cy="208.39" r="6.9"/>
		<circle class="st15" cx="137.97" cy="243.02" r="6.9"/>
		<circle class="st15" cx="145.91" cy="151.19" r="6.9"/>
		<circle class="st15" cx="141.8" cy="73.11" r="6.9"/>
		<circle class="st15" cx="236.9" cy="145.9" r="6.9"/>
		<circle class="st15" cx="53.07" cy="191.06" r="6.9"/>
	</g>
	<g>
		<defs>
			<path id="SVGID_1_" d="M244.55,138.84L244.55,138.84c-2.39-2.57-5.68-3.92-9.47-3.87v-6.7h-14.16v8.27
				c-2.01-1.08-4.27-1.63-6.71-1.63c-1.17,0-2.3,0.13-3.38,0.37h-5.28h-6.07h-5.28c-1.08-0.25-2.21-0.37-3.38-0.37
				c-2.55,0-4.89,0.6-6.97,1.79c-0.73-0.44-1.52-0.81-2.38-1.09c-2.15-0.7-4.57-0.82-6.71-0.32h-7.32l-4.95-3.84l-3.14,3.78
				c-0.94-0.17-1.93-0.25-2.97-0.25c-2.61,0-5.03,0.59-7.18,1.75c-1.15,0.62-2.18,1.38-3.09,2.25c-0.81-0.9-1.74-1.67-2.81-2.3l0,0
				c-1.94-1.13-4.15-1.7-6.58-1.7c-1.03,0-2.02,0.1-2.98,0.31h-4.71c-0.12-1.86-0.88-3.57-2.18-4.87c-1.42-1.42-3.35-2.2-5.44-2.2
				c-0.35,0-0.69,0.03-1.03,0.08v-0.01h-14.16v6.65c-2.74-0.11-5.37,0.51-7.64,1.8c-1.02,0.58-1.93,1.29-2.74,2.1
				c-0.81-0.78-1.72-1.48-2.73-2.06c-2.17-1.23-4.64-1.86-7.35-1.86c-2.7,0-5.17,0.62-7.34,1.85c-1.07,0.6-2.02,1.33-2.87,2.15
				c-0.84-0.82-1.78-1.54-2.83-2.14c-2.17-1.23-4.64-1.86-7.34-1.86c-2.08,0-4.02,0.37-5.8,1.1l-3.95-7.74H32.04v34.82h14.3v-9.6
				h5.28c0.29,0.98,0.66,1.93,1.15,2.83c1.23,2.24,3,4.02,5.25,5.29c2.18,1.23,4.65,1.85,7.35,1.85c2.71,0,5.18-0.62,7.34-1.86
				c1.06-0.6,2-1.32,2.83-2.14c0.84,0.83,1.79,1.55,2.86,2.15c2.18,1.23,4.65,1.85,7.35,1.85c2.71,0,5.18-0.62,7.34-1.86
				c1.02-0.58,1.92-1.27,2.73-2.06c0.81,0.81,1.72,1.52,2.74,2.1c2.11,1.2,4.48,1.81,7.05,1.81c1.18,0,2.32-0.12,3.4-0.37h5.29h6.07
				h2h6.1h13.96c0.28,1.45,0.82,2.82,1.62,4.08c1.28,2.02,3.1,3.59,5.42,4.65c2.06,0.94,4.39,1.42,6.95,1.42
				c2.49,0,4.77-0.42,6.77-1.26c2.29-0.96,4.12-2.41,5.46-4.3c0.97-1.39,1.6-2.92,1.89-4.58h7.47v-8.13
				c0.19,0.47,0.39,0.93,0.63,1.38c1.19,2.21,2.88,3.98,5.03,5.25c2.12,1.25,4.53,1.88,7.15,1.88c1.17,0,2.3-0.12,3.38-0.37h5.28
				v7.89h14.16v-7.53c2.6,0.09,5.09-0.46,7.27-1.63v1.26h27.06v-14.82C247.98,144.46,246.82,141.29,244.55,138.84z M213.68,148.83
				c0.06-0.01,0.17,0,0.24,0c0.01,0.07,0.03,0.18,0.03,0.35c0,0.17-0.02,0.29-0.02,0.35c-0.06,0.01-0.18,0.01-0.24,0 M191.38,149.18
				c0,0.17-0.02,0.29-0.02,0.35c-0.06,0-0.18,0-0.24,0c-0.02-0.07-0.03-0.18-0.03-0.35c0-0.16,0.01-0.28,0.03-0.35
				c0.06-0.01,0.17,0,0.23,0C191.37,148.9,191.38,149.02,191.38,149.18z M121.41,132.39c0.82,0,1.68,0.36,2.3,0.96
				c0.53,0.52,0.88,1.21,1,1.93h-1.22c-0.08-0.38-0.26-0.71-0.53-0.98c-0.4-0.4-0.91-0.6-1.55-0.6c-0.39,0-0.73,0.09-1.03,0.25
				v-1.36C120.72,132.47,121.07,132.39,121.41,132.39z M106.22,149.18c0,0.17-0.02,0.29-0.02,0.35c-0.07,0.01-0.18,0.01-0.24,0
				c-0.02-0.07-0.03-0.19-0.03-0.35c0-0.16,0.01-0.27,0.03-0.35c0.06-0.01,0.17-0.01,0.24,0
				C106.2,148.9,106.22,149.02,106.22,149.18z M65.17,148.85c0,0,0.06-0.02,0.21-0.02c0.06,0,0.1,0,0.12,0
				c0.03,0.05,0.06,0.14,0.06,0.35c0,0.21-0.04,0.3-0.06,0.35c-0.07,0-0.23,0-0.27,0c-0.02-0.05-0.06-0.14-0.06-0.35
				C65.16,148.95,65.2,148.87,65.17,148.85z M65.55,149.52L65.55,149.52"/>
		</defs>
		<clipPath id="SVGID_2_">
			<use xlink:href="#SVGID_1_"  style="overflow:visible;"/>
		</clipPath>
		<g id="XMLID_3_" class="st16">
			<linearGradient id="XMLID_7_" gradientUnits="userSpaceOnUse" x1="142.7324" y1="157.4868" x2="142.7324" y2="56.0869">
				<stop  offset="0" style="stop-color:#E71D73"/>
				<stop  offset="0.2768" style="stop-color:#E5144F"/>
				<stop  offset="0.5779" style="stop-color:#E40D2E"/>
				<stop  offset="0.8298" style="stop-color:#E3081A"/>
				<stop  offset="1" style="stop-color:#E30613"/>
			</linearGradient>
			<polygon id="XMLID_4_" class="st17" points="26.13,74.41 142.73,7.08 259.34,74.41 259.34,209.05 142.73,276.38 26.13,209.05 			
				"/>
		</g>
	</g>
</g>
<g id="feuilles">
	
		<pattern  id="SVGID_3_" xlink:href="#Nouvelle_nuance_de_motif_4" patternTransform="matrix(1.5729 -0.2243 0.1749 1.2264 5997.6226 -92.9236)">
	</pattern>
	<path class="st18" d="M184.15,42.32c-8.22-8.43-30.01-6.99-40.78,2.25c-2.89,2.48-4.81,5.38-6,8.38c-1.13-1.15-2.39-2.14-3.78-2.9
		c-1.29-0.7-2.48-1.08-3.99-1.43c-3.01-0.71-20.22-4.76-34.09,5.97c-1.64,1.27-12.72,9.84-10.91,18.69
		c0.19,0.91,0.74,3.59,2.74,5.17c9.11,7.17,37.68-16.77,48.45-17.92c-0.25,5.92,1.64,11.23,3.79,13.46
		c0.13,0.43,0.34,0.74,0.68,0.87c0.18,0.06,0.36,0.07,0.54,0.04c0.22,0.1,0.43,0.18,0.65,0.2c1.06,0.14,2.29-0.61,2.95-1.31
		c1.17-1.24,0.54-2.79-0.52-4.38c0.1-2.26-0.32-4.98-1.26-7.7c7.56-2.49,34.45,4.64,42.93-3.59
		C190.05,53.78,188.07,46.33,184.15,42.32z"/>
</g>
<g id="texte">
	<rect x="41.61" y="134.23" class="st0" width="226.9" height="114.05"/>
	<text transform="matrix(1 0 0 1 41.6126 158.0266)" class="st19 st20 st21">foodingraph</text>
</g>
</svg>
