<?xml version="1.0" encoding="utf-8"?>
<!-- Generator: Adobe Illustrator 24.2.0, SVG Export Plug-In . SVG Version: 6.00 Build 0)  -->
<svg version="1.1" xmlns="http://www.w3.org/2000/svg" xmlns:xlink="http://www.w3.org/1999/xlink" x="0px" y="0px"
	 viewBox="0 0 283.46 283.46" style="enable-background:new 0 0 283.46 283.46;" xml:space="preserve">
<style type="text/css">
	.st0{display:none;}
	.st1{display:inline;}
	.st2{fill:#FFFFFF;}
	.st3{fill:#7DD1FF;}
	.st4{fill:none;}
	.st5{fill:#E30613;stroke:#E30613;stroke-width:1.5;stroke-miterlimit:10;}
	.st6{font-family:'AmericanTypewriter';}
	.st7{font-size:36px;}
	.st8{clip-path:url(#XMLID_9_);}
	.st9{fill:#E30613;stroke:#E30613;stroke-miterlimit:10;}
	.st10{opacity:0.5;fill:#E6007E;}
	.st11{fill:#E30613;}
</style>
<g id="BG" class="st0">
	<rect id="XMLID_2_" class="st1" width="283.46" height="283.46"/>
</g>
<g id="Layer_5">
	<polygon id="XMLID_139_" class="st2" points="18.99,70.86 141.73,0 264.47,70.86 264.47,212.6 141.73,283.46 18.99,212.6 	"/>
</g>
<g id="Calque_11">
	<g id="XMLID_137_">
		<polygon id="XMLID_138_" class="st3" points="25.13,74.41 141.73,7.08 258.34,74.41 258.34,209.05 141.73,276.38 25.13,209.05 		
			"/>
	</g>
</g>
<g id="textes">
	<g>
		<defs>
			<polygon id="XMLID_1_" points="25.13,74.41 141.73,7.08 258.34,74.41 258.34,209.05 141.73,276.38 25.13,209.05 			"/>
		</defs>
		<clipPath id="XMLID_7_">
			<use xlink:href="#XMLID_1_"  style="overflow:visible;"/>
		</clipPath>
	</g>
	<rect x="104.58" y="149.23" class="st4" width="159.8" height="38.75"/>
	<text transform="matrix(1 0 0 1 124.4983 173.7114)" class="st5 st6 st7">PheVis</text>
	<g>
		<defs>
			<polygon id="XMLID_3_" points="25.13,74.41 141.73,7.08 258.34,74.41 258.34,209.05 141.73,276.38 25.13,209.05 			"/>
		</defs>
		<clipPath id="XMLID_8_">
			<use xlink:href="#XMLID_3_"  style="overflow:visible;"/>
		</clipPath>
	</g>
	<g>
		<defs>
			<polygon id="XMLID_5_" points="25.13,74.41 141.73,7.08 258.34,74.41 258.34,209.05 141.73,276.38 25.13,209.05 			"/>
		</defs>
		<clipPath id="XMLID_9_">
			<use xlink:href="#XMLID_5_"  style="overflow:visible;"/>
		</clipPath>
		<g class="st8">
			<path class="st2" d="M-1.71,40.49l-1.3-3.53c-0.14-0.38-0.29-0.62-0.45-0.72c-0.16-0.1-0.47-0.14-0.95-0.14h-6.41
				c-0.48,0-0.81,0.08-0.99,0.25c-0.18,0.17-0.41,0.62-0.7,1.37l-1.04,2.77c-0.1,0.26-0.14,0.52-0.14,0.76
				c0,0.77,0.47,1.15,1.4,1.15c0.24,0,0.58-0.02,1.03-0.07c0.44-0.05,0.77-0.07,0.99-0.07c0.98,0,1.48,0.42,1.48,1.26
				c0,0.79-0.54,1.19-1.62,1.19c-0.19,0-0.46-0.02-0.79-0.07l-1.8-0.22c-0.34-0.04-0.89-0.06-1.66-0.06c-0.84,0-1.43,0.02-1.76,0.06
				l-1.51,0.18c-0.67,0.08-1.16,0.12-1.48,0.12c-0.94,0-1.4-0.4-1.4-1.19c0-0.84,0.46-1.26,1.37-1.26c0.19,0,0.34,0.05,0.43,0.14
				h0.47c0.65,0,1.14-0.25,1.48-0.76c0.14-0.19,0.38-0.76,0.72-1.7l6.7-18.17c0.38-1.01,1.14-1.52,2.27-1.52
				c1.1,0,1.84,0.5,2.2,1.51l6.44,17.86c0.41,1.13,0.78,1.87,1.12,2.23c0.34,0.36,0.82,0.54,1.44,0.54c0.19,0,0.34-0.02,0.43-0.05
				l1.01-0.1c0.91,0,1.37,0.4,1.37,1.19c0,0.84-0.46,1.26-1.37,1.26c-0.26,0-0.61-0.03-1.04-0.08c-1.51-0.19-2.64-0.28-3.38-0.28
				c-0.89,0-2.33,0.1-4.32,0.29c-0.5,0.05-0.89,0.07-1.15,0.07c-0.96,0-1.44-0.41-1.44-1.22c0-0.82,0.53-1.22,1.58-1.22
				c0.22,0,0.53,0.02,0.95,0.07c0.42,0.05,0.74,0.07,0.95,0.07c0.79,0,1.19-0.32,1.19-0.97C-1.42,41.33-1.52,41.02-1.71,40.49z
				 M-4.3,33.15l-3.24-9.94l-3.31,9.94c-0.05,0.14-0.07,0.23-0.07,0.25c0,0.22,0.18,0.32,0.54,0.32h5.72c0.29,0,0.43-0.1,0.43-0.29
				C-4.23,33.39-4.26,33.29-4.3,33.15z"/>
			<path class="st2" d="M16.5,36.24L16.4,25.8c-0.02-1.22-0.15-2.04-0.38-2.45c-0.23-0.41-0.68-0.61-1.35-0.61
				c-0.24,0-0.59,0.03-1.04,0.09c-0.46,0.06-0.8,0.09-1.04,0.09c-0.94,0-1.4-0.42-1.4-1.26c0-0.84,0.44-1.26,1.33-1.26
				c0.29,0,0.74,0.03,1.35,0.09c0.61,0.06,1.09,0.09,1.42,0.09c0.77,0,1.4-0.02,1.91-0.07c0.74-0.07,1.2-0.11,1.37-0.11
				c0.53,0,0.85,0.16,0.97,0.47c0.1,0.22,0.14,0.59,0.14,1.12c0,0.07-0.01,0.36-0.04,0.86c-0.12,2.57-0.18,4.9-0.18,6.98v4.07
				c0,0.74,0.01,1.74,0.04,2.99c0.05,1.51,0.07,2.51,0.07,2.99c0.02,1.66,0.58,2.48,1.66,2.48c0.26,0,0.66-0.03,1.19-0.09
				c0.53-0.06,0.92-0.09,1.19-0.09c1.15,0,1.73,0.42,1.73,1.26c0,0.84-0.53,1.26-1.58,1.26c-0.41,0-0.79-0.02-1.15-0.07
				c-2.02-0.26-3.55-0.4-4.61-0.4c-1.06,0-2.35,0.1-3.89,0.3c-0.86,0.11-1.48,0.17-1.84,0.17c-1.03,0-1.55-0.43-1.55-1.28
				c0-0.83,0.59-1.24,1.76-1.24c0.36,0,0.73,0.04,1.12,0.11c0.58,0.05,0.94,0.07,1.08,0.07c0.84,0,1.36-0.33,1.55-0.99
				C16.41,40.71,16.5,39,16.5,36.24z"/>
			<path class="st2" d="M33.53,24.51l-0.43,5.76c1.87-1.3,3.94-1.94,6.19-1.94c2.69,0,4.81,0.71,6.37,2.14
				c1.56,1.43,2.34,3.38,2.34,5.85c0,2.69-0.93,4.87-2.79,6.53c-1.86,1.67-4.29,2.5-7.29,2.5c-2.47,0-4.57-0.61-6.28-1.82
				c-1.72-1.21-2.57-2.69-2.57-4.45c0-0.86,0.28-1.59,0.83-2.18c0.55-0.59,1.22-0.88,2.02-0.88c0.62,0,1.13,0.18,1.53,0.54
				c0.4,0.36,0.59,0.84,0.59,1.44c0,0.41-0.14,0.76-0.41,1.06c-0.28,0.3-0.61,0.45-0.99,0.45c-0.29,0.02-0.43,0.11-0.43,0.25
				c0,0.79,0.63,1.51,1.89,2.14c1.26,0.64,2.67,0.95,4.23,0.95c1.92,0,3.5-0.59,4.73-1.78c1.24-1.19,1.85-2.71,1.85-4.55
				c0-1.78-0.52-3.17-1.57-4.19c-1.04-1.02-2.48-1.53-4.3-1.53c-2.23,0-4.01,0.65-5.33,1.94c-0.53,0.5-0.9,0.83-1.12,0.99
				c-0.22,0.16-0.49,0.26-0.83,0.31h-0.14c-0.94,0-1.4-0.53-1.4-1.58c0-0.05,0.01-0.1,0.04-0.14l0.5-6.95
				c0.02-0.38,0.05-1.04,0.07-1.98c0.02-1.32,0.12-2.13,0.29-2.43c0.17-0.3,0.61-0.45,1.33-0.45c0.29,0,0.5,0,0.65,0h1.76h2.09h4.43
				c0.7,0,1.22-0.01,1.58-0.04c0.72-0.05,1.21-0.07,1.48-0.07c0.96,0,1.44,0.71,1.44,2.12l-0.04,0.25c0,0.62,0.1,1.36,0.29,2.2
				c0.1,0.29,0.14,0.55,0.14,0.79c0,0.77-0.41,1.15-1.22,1.15c-0.77,0-1.18-0.56-1.22-1.69c-0.05-1.34-0.64-2.02-1.76-2.02h-7.52
				C33.94,23.21,33.6,23.64,33.53,24.51z"/>
			<path class="st2" d="M76.16,32.32l10.15-8.64c0.26-0.22,0.4-0.42,0.4-0.61c0-0.26-0.23-0.4-0.68-0.4c-0.19,0-0.32,0.01-0.4,0.04
				c-0.86,0.1-1.5,0.14-1.91,0.14c-0.86,0-1.3-0.42-1.3-1.26c0-0.79,0.52-1.19,1.55-1.19c0.55,0,1.04,0.02,1.48,0.07l1.91,0.22
				c0.84,0.1,1.48,0.14,1.91,0.14c0.86,0,1.93-0.1,3.2-0.29c0.65-0.1,1.13-0.14,1.44-0.14c0.91,0,1.37,0.41,1.37,1.22
				c0,0.82-0.42,1.22-1.26,1.22c-0.07,0-0.19,0-0.36,0s-0.3,0-0.4,0c-0.12,0-0.3,0-0.54,0c-0.91,0-1.73,0.3-2.45,0.9l-6.8,5.67
				c-0.29,0.24-0.43,0.45-0.43,0.65c0,0.12,0.12,0.32,0.36,0.61l0.54,0.83l5.76,7.82c1.54,2.08,2.69,3.12,3.46,3.12
				c0.05,0,0.12-0.01,0.22-0.04c0.1,0,0.16,0,0.18,0c0.65-0.07,1.04-0.11,1.19-0.11c0.86,0,1.3,0.41,1.3,1.22s-0.47,1.22-1.4,1.22
				l-1.8-0.22c-0.89-0.1-1.9-0.14-3.02-0.14c-1.3,0-2.65,0.07-4.07,0.22c-0.94,0.1-1.46,0.14-1.58,0.14c-0.89,0-1.33-0.39-1.33-1.17
				c0-0.85,0.47-1.28,1.4-1.28c0.26,0,0.64,0.02,1.12,0.06c0.94,0.08,1.48,0.12,1.62,0.12c0.58,0,0.86-0.12,0.86-0.36
				c0-0.17-0.11-0.4-0.32-0.68l-6.7-9.11c-0.14-0.19-0.28-0.29-0.4-0.29c-0.1,0-0.25,0.1-0.47,0.29l-3.78,3.31
				c-0.02,0.43-0.04,0.92-0.04,1.48c0,2.09,0.01,3.2,0.04,3.35c0.19,1.37,0.79,2.05,1.8,2.05c0.14,0,0.41-0.04,0.79-0.11
				c0.38-0.07,0.71-0.11,0.97-0.11c0.31,0,0.58,0.11,0.79,0.34c0.22,0.23,0.32,0.51,0.32,0.85c0,0.84-0.53,1.26-1.58,1.26
				c-0.05,0-0.13,0-0.25,0c-0.1-0.02-0.18-0.04-0.25-0.04l-2.02-0.29c-0.5-0.07-1.28-0.11-2.34-0.11c-0.77,0-1.4,0.04-1.91,0.11
				L70.5,44.7c-0.05,0-0.12,0.01-0.22,0.04c-0.1,0-0.17,0-0.22,0c-1.08,0-1.62-0.43-1.62-1.28c0-0.78,0.37-1.17,1.12-1.17
				c0.22,0,0.54,0.04,0.97,0.13c0.29,0.06,0.54,0.09,0.76,0.09c1.2,0,1.8-0.9,1.8-2.7c0,0.05,0.01-0.79,0.04-2.52v-3.17V31.1v-3.2
				l-0.04-2.52c0-1.8-0.6-2.7-1.79-2.7c-0.24,0-0.49,0.03-0.75,0.09c-0.43,0.06-0.75,0.09-0.96,0.09c-0.76,0-1.14-0.4-1.14-1.19
				c0-0.84,0.54-1.26,1.62-1.26c0.12,0,0.28,0.01,0.47,0.04l1.72,0.24c0.77,0.1,1.41,0.16,1.94,0.16c0.65,0,1.61-0.07,2.91-0.22
				s2.03-0.22,2.23-0.22c1,0,1.51,0.42,1.51,1.26c0,0.34-0.11,0.62-0.32,0.85s-0.48,0.34-0.79,0.34c-0.24,0-0.56-0.04-0.96-0.11
				c-0.17-0.05-0.42-0.07-0.75-0.07c-0.83,0-1.36,0.29-1.57,0.88c-0.21,0.59-0.31,2.02-0.29,4.3V32.32z"/>
			<path class="st2" d="M107.26,45.35c-3.05,0-5.44-1.12-7.18-3.37c-1.74-2.24-2.61-5.33-2.61-9.27c0-4.01,0.91-7.17,2.72-9.49
				c1.81-2.32,4.29-3.47,7.43-3.47c3,0,5.37,1.11,7.11,3.33c1.74,2.22,2.61,5.23,2.61,9.02c0,4.1-0.9,7.34-2.7,9.7
				C112.84,44.17,110.38,45.35,107.26,45.35z M107.55,22.42c-4.42,0-6.71,3.3-6.88,9.9v0.54c0,3.14,0.58,5.57,1.73,7.29
				c1.15,1.72,2.78,2.57,4.9,2.57c2.16,0,3.85-0.94,5.08-2.81s1.84-4.45,1.84-7.74c0-3.14-0.58-5.56-1.73-7.24
				C111.33,23.26,109.68,22.42,107.55,22.42z"/>
			<path class="st2" d="M127.89,30.56l7.49-7.34h-8.35c-0.94,0-1.56,0.06-1.87,0.18c-0.6,0.19-0.9,0.66-0.9,1.4
				c0,0.24,0.02,0.59,0.07,1.04c0.05,0.46,0.07,0.8,0.07,1.04c0,1.25-0.42,1.87-1.26,1.87c-0.82,0-1.22-0.52-1.22-1.55
				c0-0.29,0.02-0.73,0.05-1.31c0.04-0.59,0.05-1.03,0.05-1.31c0-0.67,0-1.18,0-1.51c0-0.34,0-0.71,0-1.12
				c0-0.65,0.12-1.05,0.36-1.21c0.24-0.16,0.84-0.23,1.79-0.23h8.82c0.48,0,1.29-0.02,2.44-0.07c0.57-0.02,1.24-0.04,2.01-0.04
				c1.41,0,2.12,0.43,2.12,1.29c0,0.55-0.3,1.11-0.9,1.69l-6.62,6.35c0.14,0,0.34,0,0.58,0c0.22,0,0.37,0,0.47,0
				c2.04,0,3.71,0.65,5.02,1.96c1.31,1.31,1.96,2.98,1.96,5.02c0,2.54-0.93,4.62-2.79,6.23c-1.86,1.61-4.25,2.41-7.18,2.41
				c-2.69,0-4.93-0.65-6.73-1.96c-1.8-1.31-2.7-2.95-2.7-4.91c0-1.13,0.32-2.08,0.97-2.86s1.45-1.17,2.41-1.17
				c0.62,0,1.13,0.19,1.53,0.56c0.4,0.37,0.59,0.86,0.59,1.46c0,1.2-0.71,1.8-2.12,1.8h-0.4v0.25c0,1.18,0.65,2.2,1.96,3.06
				c1.31,0.86,2.85,1.3,4.63,1.3c1.99,0,3.62-0.57,4.9-1.71c1.27-1.14,1.91-2.6,1.91-4.37c0-3.12-1.78-4.68-5.33-4.68
				c-0.94,0-1.91,0.11-2.92,0.32c-0.22,0.05-0.42,0.07-0.61,0.07c-0.58,0-0.86-0.31-0.86-0.94
				C127.31,31.27,127.5,30.94,127.89,30.56z"/>
			<path class="st2" d="M148.51,24.51l-0.43,5.76c1.87-1.3,3.94-1.94,6.19-1.94c2.69,0,4.81,0.71,6.37,2.14
				c1.56,1.43,2.34,3.38,2.34,5.85c0,2.69-0.93,4.87-2.79,6.53c-1.86,1.67-4.29,2.5-7.29,2.5c-2.47,0-4.57-0.61-6.28-1.82
				c-1.72-1.21-2.57-2.69-2.57-4.45c0-0.86,0.28-1.59,0.83-2.18c0.55-0.59,1.22-0.88,2.02-0.88c0.62,0,1.13,0.18,1.53,0.54
				c0.4,0.36,0.59,0.84,0.59,1.44c0,0.41-0.14,0.76-0.41,1.06c-0.28,0.3-0.61,0.45-0.99,0.45c-0.29,0.02-0.43,0.11-0.43,0.25
				c0,0.79,0.63,1.51,1.89,2.14c1.26,0.64,2.67,0.95,4.23,0.95c1.92,0,3.5-0.59,4.73-1.78s1.85-2.71,1.85-4.55
				c0-1.78-0.52-3.17-1.57-4.19c-1.04-1.02-2.48-1.53-4.3-1.53c-2.23,0-4.01,0.65-5.33,1.94c-0.53,0.5-0.9,0.83-1.12,0.99
				c-0.22,0.16-0.49,0.26-0.83,0.31h-0.14c-0.94,0-1.4-0.53-1.4-1.58c0-0.05,0.01-0.1,0.04-0.14l0.5-6.95
				c0.02-0.38,0.05-1.04,0.07-1.98c0.02-1.32,0.12-2.13,0.29-2.43c0.17-0.3,0.61-0.45,1.33-0.45c0.29,0,0.5,0,0.65,0h1.76h2.09h4.43
				c0.7,0,1.22-0.01,1.58-0.04c0.72-0.05,1.21-0.07,1.48-0.07c0.96,0,1.44,0.71,1.44,2.12l-0.04,0.25c0,0.62,0.1,1.36,0.29,2.2
				c0.1,0.29,0.14,0.55,0.14,0.79c0,0.77-0.41,1.15-1.22,1.15c-0.77,0-1.18-0.56-1.22-1.69c-0.05-1.34-0.64-2.02-1.76-2.02h-7.52
				C148.92,23.21,148.59,23.64,148.51,24.51z"/>
			<path class="st2" d="M179.11,39.78V25.37c0-1.77-0.61-2.66-1.82-2.66c-0.19,0-0.44,0.02-0.75,0.06
				c-0.45,0.06-0.77,0.09-0.96,0.09c-0.76,0-1.14-0.4-1.14-1.19c0-0.84,0.53-1.26,1.58-1.26c0.17,0,0.35,0.01,0.54,0.04l1.76,0.22
				c0.58,0.07,1.29,0.11,2.16,0.11c0.6,0,1.32-0.04,2.16-0.11c1.96-0.17,3.45-0.25,4.46-0.25c1.53,0,2.85,0.12,3.95,0.36
				c1.58,0.34,2.82,1.08,3.72,2.23s1.35,2.54,1.35,4.18c0,2.26-0.77,3.98-2.32,5.18c-1.55,1.2-3.79,1.8-6.71,1.8h-2.56
				c-0.79,0-1.26,0-1.4,0h-0.07c-0.38,0-0.63,0.07-0.74,0.2c-0.11,0.13-0.16,0.44-0.16,0.91v0.72c0,3.04,0.09,4.88,0.27,5.52
				c0.18,0.65,0.7,0.97,1.57,0.97c0.26,0,0.52-0.04,0.76-0.11c0.53-0.05,0.85-0.07,0.97-0.07c0.74,0,1.12,0.38,1.12,1.15
				c0,0.86-0.53,1.3-1.58,1.3l-0.5-0.07l-1.8-0.25c-0.5-0.07-1.26-0.11-2.27-0.11c-0.84,0-1.52,0.04-2.05,0.11l-2.09,0.29
				c-0.05,0-0.12,0.01-0.22,0.04c-0.1,0-0.18,0-0.25,0c-1.08,0-1.62-0.42-1.62-1.26c0-0.34,0.11-0.62,0.32-0.85s0.48-0.34,0.79-0.34
				c0.26,0,0.59,0.04,0.97,0.11c0.17,0.05,0.42,0.07,0.76,0.07C178.5,42.47,179.11,41.57,179.11,39.78z M182.39,23.46
				c-0.17,0.24-0.25,0.9-0.25,1.98v5.33c0,0.65,0.46,1.02,1.37,1.12c-0.07,0,0.62,0,2.09,0c1.7,0,3.12-0.13,4.25-0.4
				c2.14-0.5,3.2-1.91,3.2-4.21c0-3.05-1.94-4.57-5.83-4.57C184.33,22.71,182.73,22.96,182.39,23.46z"/>
			<path class="st2" d="M207.99,45.35c-3.05,0-5.44-1.12-7.18-3.37c-1.74-2.24-2.61-5.33-2.61-9.27c0-4.01,0.91-7.17,2.72-9.49
				c1.81-2.32,4.29-3.47,7.43-3.47c3,0,5.37,1.11,7.11,3.33c1.74,2.22,2.61,5.23,2.61,9.02c0,4.1-0.9,7.34-2.7,9.7
				C213.57,44.17,211.11,45.35,207.99,45.35z M208.27,22.42c-4.42,0-6.71,3.3-6.88,9.9v0.54c0,3.14,0.58,5.57,1.73,7.29
				c1.15,1.72,2.78,2.57,4.9,2.57c2.16,0,3.85-0.94,5.08-2.81s1.84-4.45,1.84-7.74c0-3.14-0.58-5.56-1.73-7.24
				C212.05,23.26,210.41,22.42,208.27,22.42z"/>
			<path class="st2" d="M226.49,36.24l-0.11-10.44c-0.02-1.22-0.15-2.04-0.38-2.45c-0.23-0.41-0.68-0.61-1.35-0.61
				c-0.24,0-0.59,0.03-1.04,0.09c-0.46,0.06-0.8,0.09-1.04,0.09c-0.94,0-1.4-0.42-1.4-1.26c0-0.84,0.44-1.26,1.33-1.26
				c0.29,0,0.74,0.03,1.35,0.09c0.61,0.06,1.09,0.09,1.42,0.09c0.77,0,1.4-0.02,1.91-0.07c0.74-0.07,1.2-0.11,1.37-0.11
				c0.53,0,0.85,0.16,0.97,0.47c0.1,0.22,0.14,0.59,0.14,1.12c0,0.07-0.01,0.36-0.04,0.86c-0.12,2.57-0.18,4.9-0.18,6.98v4.07
				c0,0.74,0.01,1.74,0.04,2.99c0.05,1.51,0.07,2.51,0.07,2.99c0.02,1.66,0.58,2.48,1.66,2.48c0.26,0,0.66-0.03,1.19-0.09
				c0.53-0.06,0.92-0.09,1.19-0.09c1.15,0,1.73,0.42,1.73,1.26c0,0.84-0.53,1.26-1.58,1.26c-0.41,0-0.79-0.02-1.15-0.07
				c-2.02-0.26-3.55-0.4-4.61-0.4c-1.06,0-2.35,0.1-3.89,0.3c-0.86,0.11-1.48,0.17-1.84,0.17c-1.03,0-1.55-0.43-1.55-1.28
				c0-0.83,0.59-1.24,1.76-1.24c0.36,0,0.73,0.04,1.12,0.11c0.58,0.05,0.94,0.07,1.08,0.07c0.84,0,1.36-0.33,1.55-0.99
				C226.39,40.71,226.49,39,226.49,36.24z"/>
			<path class="st2" d="M248.56,22.13c-2.16,0-3.91,0.91-5.26,2.72c-1.34,1.81-2.1,4.28-2.27,7.4c1.51-2.62,4.01-3.92,7.49-3.92
				c2.62,0,4.75,0.77,6.41,2.3c1.66,1.54,2.48,3.5,2.48,5.9c0,2.57-0.89,4.68-2.66,6.34c-1.78,1.66-4.06,2.48-6.84,2.48
				c-3.07,0-5.49-1.02-7.25-3.06c-1.76-2.04-2.65-4.82-2.65-8.35c0-4.34,0.97-7.79,2.92-10.35c1.94-2.56,4.56-3.83,7.85-3.83
				c2.02,0,3.73,0.5,5.15,1.51s2.12,2.23,2.12,3.67c0,0.67-0.23,1.25-0.7,1.73c-0.47,0.48-1.01,0.72-1.64,0.72
				c-0.5,0-0.94-0.19-1.31-0.56c-0.37-0.37-0.56-0.82-0.56-1.35c0-0.72,0.34-1.2,1.01-1.44C252.12,22.77,250.69,22.13,248.56,22.13z
				 M248.02,30.77c-1.94,0-3.48,0.53-4.61,1.6c-1.13,1.07-1.69,2.51-1.69,4.34c0,1.87,0.57,3.37,1.71,4.48
				c1.14,1.12,2.66,1.67,4.55,1.67c1.85,0,3.35-0.58,4.52-1.73s1.75-2.64,1.75-4.46c0-1.78-0.57-3.2-1.71-4.28
				C251.4,31.31,249.89,30.77,248.02,30.77z"/>
			<path class="st2" d="M-36.92,66.3l5.54,18.22l6.08-19.4c0.31-1.01,0.85-1.51,1.62-1.51h0.18c0.24,0,0.55,0.04,0.94,0.11
				c0.48,0.12,0.79,0.18,0.94,0.18c0.38,0.05,0.91,0.07,1.58,0.07c0.72,0,1.28-0.04,1.69-0.11l1.26-0.22
				c0.07-0.02,0.22-0.04,0.43-0.04c1.1,0,1.66,0.42,1.66,1.26c0,0.77-0.38,1.15-1.15,1.15c-0.19,0-0.47-0.03-0.85-0.09
				c-0.37-0.06-0.65-0.09-0.85-0.09c-1.22,0-1.84,0.9-1.84,2.7v2.52v3.17v3.06v5.69c0,1.8,0.6,2.7,1.8,2.7
				c0.24,0,0.5-0.04,0.79-0.11c0.53-0.05,0.84-0.07,0.94-0.07c0.77,0,1.15,0.38,1.15,1.15c0,0.86-0.52,1.3-1.55,1.3
				c0.05,0-0.13-0.02-0.54-0.07c-1.66-0.19-3.06-0.29-4.21-0.29c-1.13,0-2.21,0.08-3.24,0.25c-0.43,0.07-0.82,0.11-1.15,0.11
				c-0.94,0-1.4-0.4-1.4-1.21c0-0.83,0.48-1.24,1.45-1.24c0.24,0,0.42,0.02,0.54,0.05c0.53,0.06,0.85,0.1,0.94,0.1
				c0.87,0,1.41-0.9,1.63-2.7c0.05-0.38,0.07-1.6,0.07-3.67c0-0.79,0.02-1.94,0.07-3.45v-3.23v-6.36c0-0.14-0.06-0.22-0.18-0.22
				c-0.07,0-0.14,0.07-0.22,0.22l-6.62,20.52c-0.29,0.91-0.96,1.37-2.02,1.37c-0.62,0-1.09-0.09-1.39-0.27
				c-0.3-0.18-0.53-0.54-0.7-1.1l-6.52-20.52c-0.07-0.14-0.16-0.22-0.25-0.22c-0.1,0-0.14,0.07-0.14,0.21l0.22,16.65
				c0.02,1.74,0.5,2.61,1.44,2.61c0.26,0,0.62,0,1.08,0h0.43c0.94,0,1.4,0.41,1.4,1.22c0,0.82-0.48,1.22-1.44,1.22
				c-0.17,0-0.42-0.02-0.76-0.07c-0.53-0.07-1.09-0.16-1.69-0.25c-0.48-0.07-1.09-0.11-1.84-0.11c-1.32,0-2.17,0.04-2.56,0.11
				l-1.51,0.29c-0.05,0-0.12,0.01-0.22,0.04c-0.1,0-0.17,0-0.22,0c-1.1,0-1.66-0.42-1.66-1.26c0-0.34,0.11-0.62,0.32-0.85
				c0.22-0.23,0.48-0.34,0.79-0.34c0.26,0,0.58,0.04,0.94,0.11c0.36,0.07,0.62,0.11,0.79,0.11c1.22,0,1.84-0.9,1.84-2.7V68.54
				c0-1.8-0.61-2.7-1.84-2.7c-0.19,0-0.48,0.03-0.86,0.09c-0.38,0.06-0.67,0.09-0.86,0.09c-0.74,0-1.12-0.38-1.12-1.15
				c0-0.84,0.54-1.26,1.62-1.26c0.1,0,0.25,0.01,0.47,0.04l1.26,0.14c0.62,0.07,1.21,0.11,1.76,0.11c0.46,0,1.07-0.05,1.85-0.14
				c0.78-0.1,1.35-0.14,1.71-0.14c0.94,0,1.56,0.59,1.87,1.76L-36.92,66.3z"/>
			<path class="st2" d="M-3.01,88.55c-3.05,0-5.44-1.12-7.18-3.37c-1.74-2.24-2.61-5.33-2.61-9.27c0-4.01,0.91-7.17,2.72-9.49
				c1.81-2.32,4.29-3.47,7.43-3.47c3,0,5.37,1.11,7.11,3.33c1.74,2.22,2.61,5.23,2.61,9.02c0,4.1-0.9,7.34-2.7,9.7
				C2.57,87.37,0.11,88.55-3.01,88.55z M-2.72,65.62c-4.42,0-6.71,3.3-6.88,9.9v0.54c0,3.14,0.58,5.57,1.73,7.29
				c1.15,1.72,2.78,2.57,4.9,2.57c2.16,0,3.85-0.94,5.08-2.81c1.22-1.87,1.84-4.45,1.84-7.74c0-3.14-0.58-5.56-1.73-7.24
				C1.06,66.46-0.58,65.62-2.72,65.62z"/>
			<path class="st2" d="M20.93,65.33c-2.16,0-3.91,0.91-5.26,2.72c-1.34,1.81-2.1,4.28-2.27,7.4c1.51-2.62,4.01-3.92,7.49-3.92
				c2.62,0,4.75,0.77,6.41,2.3c1.66,1.54,2.48,3.5,2.48,5.9c0,2.57-0.89,4.68-2.66,6.34c-1.78,1.66-4.06,2.48-6.84,2.48
				c-3.07,0-5.49-1.02-7.25-3.06c-1.76-2.04-2.65-4.82-2.65-8.35c0-4.34,0.97-7.79,2.92-10.35c1.94-2.56,4.56-3.83,7.85-3.83
				c2.02,0,3.73,0.5,5.15,1.51c1.42,1.01,2.12,2.23,2.12,3.67c0,0.67-0.23,1.25-0.7,1.73c-0.47,0.48-1.01,0.72-1.64,0.72
				c-0.5,0-0.94-0.19-1.31-0.56c-0.37-0.37-0.56-0.82-0.56-1.35c0-0.72,0.34-1.2,1.01-1.44C24.5,65.97,23.07,65.33,20.93,65.33z
				 M20.39,73.97c-1.94,0-3.48,0.53-4.61,1.6c-1.13,1.07-1.69,2.51-1.69,4.34c0,1.87,0.57,3.37,1.71,4.48
				c1.14,1.12,2.66,1.67,4.55,1.67c1.85,0,3.35-0.58,4.52-1.73s1.75-2.64,1.75-4.46c0-1.78-0.57-3.2-1.71-4.28
				C23.77,74.51,22.26,73.97,20.39,73.97z"/>
			<path class="st2" d="M41.85,86.21c2.26,0,4.04-0.89,5.36-2.68c1.32-1.79,2.02-4.24,2.09-7.36c-1.34,2.45-3.73,3.67-7.16,3.67
				c-2.5,0-4.52-0.75-6.08-2.25c-1.56-1.5-2.34-3.45-2.34-5.85c0-2.52,0.86-4.61,2.57-6.28c1.72-1.67,3.88-2.5,6.5-2.5
				c2.98,0,5.32,1.05,7.02,3.15c1.7,2.1,2.56,4.99,2.56,8.66c0,4.3-0.95,7.67-2.84,10.12s-4.51,3.67-7.85,3.67
				c-2.11,0-3.91-0.5-5.38-1.51s-2.21-2.24-2.21-3.71c0-0.7,0.22-1.28,0.67-1.75c0.44-0.47,0.99-0.7,1.64-0.7
				c0.53,0,0.98,0.17,1.37,0.52c0.38,0.35,0.58,0.76,0.58,1.24c0,0.7-0.35,1.21-1.04,1.55C38.02,85.54,39.54,86.21,41.85,86.21z
				 M42.86,65.51c-1.8,0-3.26,0.56-4.37,1.69c-1.12,1.13-1.67,2.59-1.67,4.39c0,1.75,0.53,3.14,1.58,4.18
				c1.06,1.03,2.47,1.55,4.25,1.55c1.87,0,3.34-0.52,4.41-1.55c1.07-1.03,1.6-2.44,1.6-4.21c0-1.82-0.53-3.29-1.6-4.39
				C45.98,66.06,44.58,65.51,42.86,65.51z"/>
			<path class="st2" d="M85.37,69.4c0,2.45-1.39,4.18-4.18,5.18c1.01,0.31,1.84,0.66,2.48,1.04c1.94,1.13,2.92,2.82,2.92,5.08
				c0,2.21-0.85,3.97-2.56,5.27c-1.7,1.31-3.98,1.96-6.84,1.96c-1.03,0-2.34-0.06-3.92-0.18s-2.75-0.18-3.49-0.18
				c-0.65,0-1.26,0.04-1.84,0.11l-1.69,0.22c-0.05,0-0.13,0.01-0.25,0.04c-0.12,0-0.2,0-0.25,0c-1.03-0.02-1.55-0.46-1.55-1.3
				c0-0.77,0.37-1.15,1.12-1.15c0.19,0,0.52,0.04,0.97,0.11c0.31,0.05,0.56,0.07,0.76,0.07c1.22,0,1.84-0.89,1.84-2.66V68.54
				c0-1.8-0.61-2.7-1.84-2.7c-0.22,0-0.47,0.02-0.76,0.07c-0.43,0.07-0.76,0.11-0.97,0.11c-0.74,0-1.12-0.38-1.12-1.15
				c0-0.84,0.55-1.26,1.66-1.26h0.47l1.76,0.25c0.5,0.07,1.19,0.11,2.05,0.11c0.91,0,2.21-0.07,3.89-0.22
				c1.13-0.1,2.34-0.14,3.64-0.14c2.42,0,4.31,0.51,5.67,1.53C84.69,66.15,85.37,67.58,85.37,69.4z M71.58,70.95
				c0,1.27,0.11,2.06,0.34,2.36c0.23,0.3,0.86,0.45,1.89,0.45h2.02c4.25,0,6.37-1.38,6.37-4.14c0-2.52-1.75-3.78-5.26-3.78
				c-2.45,0-3.95,0.16-4.52,0.47c-0.56,0.31-0.85,1.12-0.85,2.41V70.95z M71.58,78.26v4c0,1.56,0.26,2.52,0.79,2.88
				c0.53,0.36,1.97,0.54,4.32,0.54c4.49,0,6.73-1.68,6.73-5.04c0-3.1-2.16-4.64-6.48-4.64h-2.99c-1.3,0-2.04,0.29-2.23,0.86
				C71.63,77.14,71.58,77.61,71.58,78.26z"/>
			<path class="st2" d="M98.58,79.44L98.48,69c-0.02-1.22-0.15-2.04-0.38-2.45c-0.23-0.41-0.68-0.61-1.35-0.61
				c-0.24,0-0.59,0.03-1.04,0.09c-0.46,0.06-0.8,0.09-1.04,0.09c-0.94,0-1.4-0.42-1.4-1.26c0-0.84,0.44-1.26,1.33-1.26
				c0.29,0,0.74,0.03,1.35,0.09c0.61,0.06,1.09,0.09,1.42,0.09c0.77,0,1.4-0.02,1.91-0.07c0.74-0.07,1.2-0.11,1.37-0.11
				c0.53,0,0.85,0.16,0.97,0.47c0.1,0.22,0.14,0.59,0.14,1.12c0,0.07-0.01,0.36-0.04,0.86c-0.12,2.57-0.18,4.9-0.18,6.98v4.07
				c0,0.74,0.01,1.74,0.04,2.99c0.05,1.51,0.07,2.51,0.07,2.99c0.02,1.66,0.58,2.48,1.66,2.48c0.26,0,0.66-0.03,1.19-0.09
				c0.53-0.06,0.92-0.09,1.19-0.09c1.15,0,1.73,0.42,1.73,1.26c0,0.84-0.53,1.26-1.58,1.26c-0.41,0-0.79-0.02-1.15-0.07
				c-2.02-0.26-3.55-0.4-4.61-0.4c-1.06,0-2.35,0.1-3.89,0.3c-0.86,0.11-1.48,0.17-1.84,0.17c-1.03,0-1.55-0.43-1.55-1.28
				c0-0.83,0.59-1.24,1.76-1.24c0.36,0,0.73,0.04,1.12,0.11c0.58,0.05,0.94,0.07,1.08,0.07c0.84,0,1.36-0.33,1.55-0.99
				C98.49,83.91,98.58,82.2,98.58,79.44z"/>
			<path class="st2" d="M115.23,81.21c-0.54,0.62-0.87,1.38-0.99,2.27c1.08-1.15,2.39-1.73,3.92-1.73c1.42,0,2.9,0.62,4.46,1.87
				c1.73,1.37,3.06,2.05,4,2.05c0.67,0,1.22-0.22,1.64-0.67c0.42-0.44,0.63-1.01,0.63-1.71c0-0.24-0.05-0.5-0.14-0.79
				c-0.38,0.38-0.82,0.58-1.3,0.58c-1.03,0-1.55-0.5-1.55-1.51c0-0.55,0.2-1.01,0.61-1.37c0.41-0.36,0.95-0.54,1.62-0.54
				c0.89,0,1.6,0.32,2.14,0.95c0.54,0.64,0.81,1.48,0.81,2.54c0,1.49-0.47,2.76-1.4,3.82s-2.08,1.58-3.42,1.58
				c-1.27,0-2.8-0.68-4.59-2.05c-1.79-1.37-3.35-2.05-4.7-2.05c-1.34,0-2.18,0.48-2.52,1.44c0.24,0,0.38,0,0.43,0
				c0.7,0,1.04,0.35,1.04,1.04c0,1.08-0.6,1.62-1.8,1.62c-0.79,0-1.43-0.34-1.93-1.03c-0.49-0.68-0.74-1.6-0.74-2.75
				c0-4.2,2.89-7.22,8.68-9.07l2.59-0.83c2.9-0.94,4.36-2.51,4.36-4.72c0-1.49-0.52-2.66-1.57-3.53s-2.48-1.3-4.3-1.3
				c-1.61,0-2.94,0.32-4,0.97c-1.06,0.65-1.68,1.54-1.87,2.66c1.3,0.1,1.94,0.66,1.94,1.69c0,0.62-0.23,1.16-0.68,1.6
				c-0.46,0.44-1.02,0.67-1.69,0.67c-0.82,0-1.47-0.28-1.96-0.85c-0.49-0.56-0.74-1.3-0.74-2.21c0-1.97,0.89-3.61,2.66-4.93
				c1.78-1.32,3.97-1.98,6.59-1.98c2.54,0,4.63,0.67,6.25,2c1.62,1.33,2.43,3.05,2.43,5.17c0,1.44-0.39,2.71-1.17,3.82
				c-0.78,1.1-1.87,1.93-3.26,2.48c-0.43,0.17-1.87,0.67-4.32,1.51c-1.75,0.6-3.16,1.18-4.21,1.73
				C116.43,80.07,115.77,80.58,115.23,81.21z"/>
			<path class="st2" d="M147.04,77.28v-3.02v-5.72c0-1.78-0.61-2.66-1.82-2.66c-0.31,0-0.55,0.03-0.71,0.1
				c-0.38,0.1-0.69,0.15-0.93,0.15c-0.31,0-0.57-0.12-0.79-0.35c-0.21-0.23-0.32-0.52-0.32-0.87c0-0.87,0.5-1.3,1.51-1.3
				c0.12,0,0.3,0.01,0.54,0.04l2.48,0.25c0.94,0.1,1.98,0.14,3.13,0.14c0.62,0,1.97-0.04,4.03-0.11l4.14-0.14
				c0.55-0.02,1.2-0.06,1.94-0.11c0.34-0.05,0.7-0.07,1.08-0.07c1.27,0,1.91,0.56,1.91,1.69c0,0.43-0.06,1.09-0.18,1.98
				c-0.12,0.89-0.18,1.56-0.18,2.02c0,0.38,0.02,0.86,0.07,1.44c0.05,0.58,0.07,1.1,0.07,1.58c0,0.98-0.43,1.48-1.3,1.48
				c-0.89,0-1.33-0.56-1.33-1.68c0-0.33,0.02-0.85,0.05-1.54c0.04-0.69,0.05-1.21,0.05-1.54c0-1.27-0.36-2.07-1.08-2.4
				c-0.72-0.33-2.42-0.5-5.11-0.5c-2.28,0-3.58,0.2-3.89,0.61c-0.24,0.31-0.36,1.42-0.36,3.31v2.66c0,0.67,0.09,1.09,0.27,1.24
				c0.18,0.16,0.68,0.23,1.49,0.23h1.19c1.56,0,2.34-0.58,2.34-1.73c0-0.26-0.03-0.62-0.09-1.08c-0.06-0.46-0.09-0.8-0.09-1.04
				c0-0.91,0.43-1.37,1.3-1.37c0.82,0,1.22,0.53,1.22,1.58c0,0.14-0.03,0.43-0.08,0.86l-0.25,1.94c-0.11,0.86-0.17,1.51-0.17,1.94
				c0,0.98,0.12,2.23,0.38,3.74c0.08,0.5,0.13,0.98,0.13,1.44c0,0.94-0.43,1.4-1.3,1.4c-0.82,0-1.22-0.5-1.22-1.51
				c0-0.24,0.02-0.6,0.05-1.08c0.04-0.48,0.05-0.84,0.05-1.08c0-0.74-0.21-1.22-0.61-1.44c-0.26-0.17-0.82-0.25-1.66-0.25h-1.12
				c-0.84,0-1.36,0.1-1.55,0.29s-0.29,0.71-0.29,1.57v4.25c0,1.12,0.13,1.88,0.38,2.27c0.25,0.39,0.73,0.59,1.42,0.59
				c0.17,0,0.43,0,0.79,0c0.36,0,0.62,0,0.79,0c1.1,0,1.66,0.41,1.66,1.22c0,0.34-0.13,0.62-0.38,0.86
				c-0.25,0.24-0.56,0.36-0.92,0.36c-0.38,0-0.95-0.06-1.69-0.18c-1.06-0.17-2.26-0.25-3.6-0.25c-0.86,0-1.79,0.07-2.77,0.22
				l-1.22,0.18c-0.07,0-0.16,0.01-0.25,0.04c-0.1,0-0.17,0-0.22,0c-1.06,0-1.58-0.43-1.58-1.3c0-0.77,0.37-1.15,1.12-1.15
				c0.1,0,0.41,0.02,0.94,0.07c0.26,0.07,0.52,0.11,0.76,0.11c0.65,0,1.1-0.2,1.35-0.59c0.25-0.4,0.39-1.1,0.41-2.11V77.28z"/>
			<path class="st2" d="M175.33,88.55c-3.05,0-5.44-1.12-7.18-3.37c-1.74-2.24-2.61-5.33-2.61-9.27c0-4.01,0.91-7.17,2.72-9.49
				c1.81-2.32,4.29-3.47,7.43-3.47c3,0,5.37,1.11,7.11,3.33c1.74,2.22,2.61,5.23,2.61,9.02c0,4.1-0.9,7.34-2.7,9.7
				C180.91,87.37,178.45,88.55,175.33,88.55z M175.62,65.62c-4.42,0-6.71,3.3-6.88,9.9v0.54c0,3.14,0.58,5.57,1.73,7.29
				c1.15,1.72,2.78,2.57,4.9,2.57c2.16,0,3.85-0.94,5.08-2.81c1.22-1.87,1.84-4.45,1.84-7.74c0-3.14-0.58-5.56-1.73-7.24
				C179.4,66.46,177.76,65.62,175.62,65.62z"/>
			<path class="st2" d="M191.97,65.12l-0.07,0.4c0.6-0.96,1.14-1.61,1.62-1.94c0.48-0.33,1.13-0.5,1.94-0.5
				c1.18,0,2.56,0.61,4.14,1.84c1.78,1.37,3.14,2.05,4.1,2.05c1.01,0,1.63-0.35,1.87-1.04h-0.29c-0.34,0-0.64-0.15-0.92-0.44
				c-0.28-0.29-0.41-0.62-0.41-0.98c0-0.46,0.17-0.86,0.52-1.18c0.35-0.33,0.76-0.49,1.24-0.49c1.58,0,2.38,1.07,2.38,3.21
				c0,1.59-0.4,2.99-1.19,4.19c-0.5,0.75-1.04,1.4-1.62,1.95c-0.26,0.26-0.79,0.75-1.58,1.44c-1.63,1.42-2.75,2.73-3.35,3.93
				c-0.86,1.71-1.3,3.78-1.3,6.21c0-0.05,0.01,0.22,0.04,0.79c0.05,1.16,0.07,1.67,0.07,1.55c0,1.52-0.6,2.27-1.8,2.27
				c-1.25,0-1.87-0.98-1.87-2.95c0-3.1,0.58-5.8,1.73-8.1c0.94-1.87,2.93-4.06,5.98-6.55c1.25-1.03,1.96-1.88,2.12-2.56
				c-0.82,0.7-1.86,1.04-3.11,1.04c-1.54,0-3.05-0.55-4.52-1.66l-1.48-1.12c-0.53-0.38-1.12-0.58-1.77-0.58
				c-1.54,0-2.32,0.98-2.32,2.95c0,0.6,0.06,1.14,0.17,1.62c0.2,0.84,0.3,1.46,0.3,1.87c0,0.41-0.14,0.76-0.41,1.04
				c-0.28,0.29-0.62,0.43-1.03,0.43c-0.96,0-1.44-0.52-1.44-1.55c0-0.41,0.05-1.03,0.16-1.87c0.11-0.84,0.16-1.49,0.16-1.94
				c0-0.67-0.04-1.39-0.11-2.16c-0.07-0.77-0.11-1.44-0.11-2.02c0-0.98,0.42-1.48,1.26-1.48c0.7,0,1.04,0.42,1.04,1.26
				C192.11,64.24,192.06,64.59,191.97,65.12z"/>
			<path class="st2" d="M224.47,79.73c0-0.38,0.17-0.71,0.5-0.97c-0.22-0.12-0.4-0.18-0.54-0.18c-0.53,0-0.99,0.28-1.39,0.85
				c-0.4,0.56-0.59,1.22-0.59,1.96c0,1.32,0.52,2.41,1.55,3.28c1.03,0.86,2.35,1.3,3.96,1.3c3.62,0,5.64-1.63,6.05-4.9
				c0.17-1.37,0.25-3.25,0.25-5.65v-1.15v-5.72c0-1.78-0.62-2.66-1.85-2.66c-0.34,0-0.59,0.02-0.76,0.07
				c-0.39,0.07-0.71,0.11-0.98,0.11c-0.31,0-0.58-0.11-0.8-0.34c-0.22-0.23-0.33-0.51-0.33-0.85c0-0.84,0.53-1.26,1.58-1.26
				c0.14,0,0.31,0.01,0.5,0.04l1.91,0.25c0.72,0.1,1.46,0.14,2.23,0.14c0.72,0,1.54-0.06,2.45-0.18l1.66-0.22
				c0.1-0.02,0.26-0.04,0.5-0.04c1.06,0,1.58,0.42,1.58,1.26c0,0.79-0.38,1.19-1.15,1.19c-0.24,0-0.56-0.04-0.97-0.11
				c-0.17-0.05-0.42-0.07-0.76-0.07c-1.22,0-1.84,0.89-1.84,2.66v6.88c0,3.6-0.14,6.01-0.43,7.24c-0.26,1.08-0.8,2.08-1.62,2.99
				c-1.75,1.94-4.13,2.92-7.13,2.92c-2.52,0-4.57-0.65-6.14-1.96c-1.57-1.31-2.36-2.99-2.36-5.06c0-1.54,0.49-2.83,1.46-3.87
				c0.97-1.04,2.18-1.57,3.62-1.57c1.03,0,1.87,0.27,2.52,0.81c0.65,0.54,0.97,1.24,0.97,2.11c0,0.6-0.19,1.12-0.58,1.57
				s-0.84,0.67-1.37,0.67c-0.46,0-0.86-0.15-1.21-0.45S224.47,80.14,224.47,79.73z"/>
			<path class="st2" d="M247.87,67.71l-0.43,5.76c1.87-1.3,3.94-1.94,6.19-1.94c2.69,0,4.81,0.71,6.37,2.14
				c1.56,1.43,2.34,3.38,2.34,5.85c0,2.69-0.93,4.87-2.79,6.53c-1.86,1.67-4.29,2.5-7.29,2.5c-2.47,0-4.57-0.61-6.28-1.82
				c-1.72-1.21-2.57-2.69-2.57-4.45c0-0.86,0.28-1.59,0.83-2.18c0.55-0.59,1.22-0.88,2.02-0.88c0.62,0,1.13,0.18,1.53,0.54
				c0.4,0.36,0.59,0.84,0.59,1.44c0,0.41-0.14,0.76-0.41,1.06c-0.28,0.3-0.61,0.45-0.99,0.45c-0.29,0.02-0.43,0.11-0.43,0.25
				c0,0.79,0.63,1.51,1.89,2.14c1.26,0.64,2.67,0.95,4.23,0.95c1.92,0,3.5-0.59,4.73-1.78c1.24-1.19,1.85-2.71,1.85-4.55
				c0-1.78-0.52-3.17-1.57-4.19s-2.48-1.53-4.3-1.53c-2.23,0-4.01,0.65-5.33,1.94c-0.53,0.5-0.9,0.83-1.12,0.99
				c-0.22,0.16-0.49,0.26-0.83,0.31h-0.14c-0.94,0-1.4-0.53-1.4-1.58c0-0.05,0.01-0.1,0.04-0.14l0.5-6.95
				c0.02-0.38,0.05-1.04,0.07-1.98c0.02-1.32,0.12-2.13,0.29-2.43c0.17-0.3,0.61-0.45,1.33-0.45c0.29,0,0.5,0,0.65,0h1.76h2.09h4.43
				c0.7,0,1.22-0.01,1.58-0.04c0.72-0.05,1.21-0.07,1.48-0.07c0.96,0,1.44,0.71,1.44,2.12l-0.04,0.25c0,0.62,0.1,1.36,0.29,2.2
				c0.1,0.29,0.14,0.55,0.14,0.79c0,0.77-0.41,1.15-1.22,1.15c-0.77,0-1.18-0.56-1.22-1.69c-0.05-1.34-0.64-2.02-1.76-2.02h-7.52
				C248.28,66.41,247.94,66.84,247.87,67.71z"/>
			<path class="st2" d="M280.45,65.51v12.42h4.25c0.79,0,1.19,0.41,1.19,1.22c0,0.82-0.42,1.22-1.26,1.22h-4.18v2.2
				c0,1.99,0.54,2.99,1.62,2.99c0.29,0,0.94-0.05,1.94-0.14c1.01,0,1.51,0.41,1.51,1.22c0,0.84-0.43,1.26-1.3,1.26
				c-0.53,0-1.24-0.07-2.12-0.22c-0.74-0.12-1.67-0.18-2.77-0.18c-0.67,0-1.68,0.07-3.02,0.2c-1.34,0.13-2.35,0.2-3.02,0.2
				c-0.91,0-1.37-0.4-1.37-1.21c0-0.85,0.55-1.28,1.66-1.28c0.24,0,0.59,0.02,1.06,0.07c0.47,0.05,0.82,0.07,1.06,0.07
				c1.2,0,1.8-1,1.8-2.99v-2.2h-11.16c-1.1,0-1.66-0.48-1.66-1.44c0-0.38,0.13-0.77,0.4-1.15l9.54-11.84
				c1.01-1.25,1.75-2.06,2.23-2.43c0.48-0.37,1.03-0.56,1.66-0.56C279.81,62.96,280.45,63.81,280.45,65.51z M268.18,77.93h9.32
				l0.25-11.77L268.18,77.93z"/>
			<path class="st2" d="M-33.19,117.68c-0.7,0.33-1.58,0.62-2.66,0.86c1.4,0.26,2.37,0.79,2.91,1.58c0.53,0.79,0.8,2.09,0.8,3.91
				v1.65c0,0.1,0,0.24,0,0.43c0,1.72,0.55,2.58,1.64,2.58c1.12,0,1.67-1.02,1.67-3.07v-1.07v-0.89v-0.5c0-0.69,0.05-1.17,0.14-1.43
				c0.19-0.4,0.56-0.61,1.12-0.61c0.86,0,1.3,0.5,1.3,1.51c0,0.02-0.01,0.29-0.04,0.79v0.76c0,0.5,0,0.83,0,0.97v0.9
				c-0.02,0.14-0.04,0.36-0.04,0.65c0,1.39-0.39,2.48-1.17,3.26c-0.78,0.78-1.87,1.17-3.26,1.17c-2.83,0-4.25-1.43-4.25-4.28v-1.08
				v-1.22v-0.79c0-1.61-0.31-2.67-0.91-3.19c-0.61-0.52-1.87-0.77-3.78-0.77h-3.33c-0.76,0-1.15,0.47-1.15,1.4v2.77
				c0,1.78,0.02,2.79,0.07,3.02c0.22,1.2,0.82,1.8,1.8,1.8c0.34,0,0.59-0.01,0.76-0.04c0.41-0.04,0.72-0.06,0.94-0.06
				c0.77,0,1.15,0.4,1.15,1.19c0,0.84-0.52,1.26-1.55,1.26l-0.54-0.07l-1.94-0.25c-0.74-0.1-1.4-0.14-1.98-0.14
				c-0.72,0-1.56,0.06-2.52,0.18l-1.73,0.22c-0.38,0.05-0.56,0.07-0.54,0.07c-1.03,0-1.55-0.43-1.55-1.3c0-0.77,0.37-1.15,1.12-1.15
				c0.12,0,0.44,0.02,0.97,0.07c0.26,0.07,0.52,0.11,0.76,0.11c1.22,0,1.84-0.9,1.84-2.7v-14.44c0-1.8-0.61-2.7-1.84-2.7
				c-0.19,0-0.48,0.03-0.86,0.09c-0.38,0.06-0.67,0.09-0.86,0.09c-0.31,0-0.58-0.11-0.79-0.34c-0.22-0.23-0.32-0.5-0.32-0.81
				c0-0.84,0.53-1.26,1.58-1.26c0.1,0,0.26,0.01,0.5,0.04l1.84,0.18c0.48,0.05,1.08,0.07,1.8,0.07c0.74,0,1.57-0.02,2.48-0.07
				l2.74-0.14c0.91-0.05,1.75-0.07,2.52-0.07c5.28,0,7.92,2.01,7.92,6.03C-30.46,115.2-31.37,116.81-33.19,117.68z M-43.17,117.39
				h3.38c2.02,0,3.53-0.29,4.54-0.86c1.22-0.7,1.84-1.86,1.84-3.49c0-2.74-1.88-4.1-5.63-4.1c-2,0-3.35,0.15-4.06,0.45
				c-0.71,0.3-1.08,0.89-1.1,1.78v1.15v4.14c0,0.41,0.07,0.67,0.22,0.77C-43.85,117.33-43.57,117.39-43.17,117.39z"/>
			<path class="st2" d="M-17.32,116.96l7.49-7.34h-8.35c-0.94,0-1.56,0.06-1.87,0.18c-0.6,0.19-0.9,0.66-0.9,1.4
				c0,0.24,0.02,0.59,0.07,1.04c0.05,0.46,0.07,0.8,0.07,1.04c0,1.25-0.42,1.87-1.26,1.87c-0.82,0-1.22-0.52-1.22-1.55
				c0-0.29,0.02-0.73,0.05-1.31c0.04-0.59,0.05-1.03,0.05-1.31c0-0.67,0-1.17,0-1.51c0-0.34,0-0.71,0-1.12
				c0-0.65,0.12-1.05,0.36-1.21c0.24-0.16,0.84-0.23,1.79-0.23h8.82c0.48,0,1.29-0.02,2.44-0.07c0.57-0.02,1.24-0.04,2.01-0.04
				c1.41,0,2.12,0.43,2.12,1.29c0,0.55-0.3,1.11-0.9,1.69l-6.62,6.35c0.14,0,0.34,0,0.58,0c0.22,0,0.37,0,0.47,0
				c2.04,0,3.71,0.65,5.02,1.96c1.31,1.31,1.96,2.98,1.96,5.02c0,2.54-0.93,4.62-2.79,6.23c-1.86,1.61-4.25,2.41-7.18,2.41
				c-2.69,0-4.93-0.65-6.73-1.96c-1.8-1.31-2.7-2.95-2.7-4.91c0-1.13,0.32-2.08,0.97-2.86c0.65-0.78,1.45-1.17,2.41-1.17
				c0.62,0,1.13,0.19,1.53,0.56s0.59,0.86,0.59,1.46c0,1.2-0.71,1.8-2.12,1.8h-0.4v0.25c0,1.18,0.65,2.2,1.96,3.06
				c1.31,0.86,2.85,1.3,4.63,1.3c1.99,0,3.62-0.57,4.9-1.71c1.27-1.14,1.91-2.6,1.91-4.37c0-3.12-1.78-4.68-5.33-4.68
				c-0.94,0-1.91,0.11-2.92,0.32c-0.22,0.05-0.42,0.07-0.61,0.07c-0.58,0-0.86-0.31-0.86-0.94
				C-17.89,117.68-17.7,117.34-17.32,116.96z"/>
			<path class="st2" d="M12.96,108.71v12.42h4.25c0.79,0,1.19,0.41,1.19,1.22c0,0.82-0.42,1.22-1.26,1.22h-4.18v2.2
				c0,1.99,0.54,2.99,1.62,2.99c0.29,0,0.94-0.05,1.94-0.14c1.01,0,1.51,0.41,1.51,1.22c0,0.84-0.43,1.26-1.3,1.26
				c-0.53,0-1.24-0.07-2.12-0.22c-0.74-0.12-1.67-0.18-2.77-0.18c-0.67,0-1.68,0.07-3.02,0.2c-1.34,0.13-2.35,0.2-3.02,0.2
				c-0.91,0-1.37-0.4-1.37-1.21c0-0.85,0.55-1.28,1.66-1.28c0.24,0,0.59,0.02,1.06,0.07c0.47,0.05,0.82,0.07,1.06,0.07
				c1.2,0,1.8-1,1.8-2.99v-2.2H-1.15c-1.1,0-1.66-0.48-1.66-1.44c0-0.38,0.13-0.77,0.4-1.15l9.54-11.84
				c1.01-1.25,1.75-2.06,2.23-2.43c0.48-0.37,1.03-0.56,1.66-0.56C12.31,106.16,12.96,107.01,12.96,108.71z M0.68,121.13h9.32
				l0.25-11.77L0.68,121.13z"/>
			<path class="st2" d="M47.37,126.89l-1.3-3.53c-0.14-0.38-0.29-0.62-0.45-0.72c-0.16-0.1-0.47-0.14-0.95-0.14h-6.41
				c-0.48,0-0.81,0.08-0.99,0.25s-0.41,0.62-0.7,1.37l-1.04,2.77c-0.1,0.26-0.14,0.52-0.14,0.76c0,0.77,0.47,1.15,1.4,1.15
				c0.24,0,0.58-0.02,1.03-0.07c0.44-0.05,0.77-0.07,0.99-0.07c0.98,0,1.48,0.42,1.48,1.26c0,0.79-0.54,1.19-1.62,1.19
				c-0.19,0-0.46-0.02-0.79-0.07l-1.8-0.22c-0.34-0.04-0.89-0.06-1.66-0.06c-0.84,0-1.43,0.02-1.76,0.06l-1.51,0.18
				c-0.67,0.08-1.16,0.12-1.48,0.12c-0.94,0-1.4-0.4-1.4-1.19c0-0.84,0.46-1.26,1.37-1.26c0.19,0,0.34,0.05,0.43,0.14h0.47
				c0.65,0,1.14-0.25,1.48-0.76c0.14-0.19,0.38-0.76,0.72-1.7l6.7-18.17c0.38-1.01,1.14-1.52,2.27-1.52c1.1,0,1.84,0.5,2.2,1.51
				l6.44,17.86c0.41,1.13,0.78,1.87,1.12,2.23c0.34,0.36,0.82,0.54,1.44,0.54c0.19,0,0.34-0.02,0.43-0.05l1.01-0.1
				c0.91,0,1.37,0.4,1.37,1.19c0,0.84-0.46,1.26-1.37,1.26c-0.26,0-0.61-0.03-1.04-0.08c-1.51-0.19-2.64-0.28-3.38-0.28
				c-0.89,0-2.33,0.1-4.32,0.29c-0.5,0.05-0.89,0.07-1.15,0.07c-0.96,0-1.44-0.41-1.44-1.22c0-0.82,0.53-1.22,1.58-1.22
				c0.22,0,0.53,0.02,0.95,0.07c0.42,0.05,0.74,0.07,0.95,0.07c0.79,0,1.19-0.32,1.19-0.97C47.66,127.73,47.57,127.42,47.37,126.89z
				 M44.78,119.55l-3.24-9.94l-3.31,9.94c-0.05,0.14-0.07,0.23-0.07,0.25c0,0.22,0.18,0.32,0.54,0.32h5.72
				c0.29,0,0.43-0.1,0.43-0.29C44.85,119.79,44.83,119.69,44.78,119.55z"/>
			<path class="st2" d="M65.59,122.64l-0.11-10.44c-0.02-1.22-0.15-2.04-0.38-2.45c-0.23-0.41-0.68-0.61-1.35-0.61
				c-0.24,0-0.59,0.03-1.04,0.09c-0.46,0.06-0.8,0.09-1.04,0.09c-0.94,0-1.4-0.42-1.4-1.26c0-0.84,0.44-1.26,1.33-1.26
				c0.29,0,0.74,0.03,1.35,0.09c0.61,0.06,1.09,0.09,1.42,0.09c0.77,0,1.4-0.02,1.91-0.07c0.74-0.07,1.2-0.11,1.37-0.11
				c0.53,0,0.85,0.16,0.97,0.47c0.1,0.22,0.14,0.59,0.14,1.12c0,0.07-0.01,0.36-0.04,0.86c-0.12,2.57-0.18,4.9-0.18,6.98v4.07
				c0,0.74,0.01,1.74,0.04,2.99c0.05,1.51,0.07,2.51,0.07,2.99c0.02,1.66,0.58,2.48,1.66,2.48c0.26,0,0.66-0.03,1.19-0.09
				c0.53-0.06,0.92-0.09,1.19-0.09c1.15,0,1.73,0.42,1.73,1.26c0,0.84-0.53,1.26-1.58,1.26c-0.41,0-0.79-0.02-1.15-0.07
				c-2.02-0.26-3.55-0.4-4.61-0.4c-1.06,0-2.35,0.1-3.89,0.3c-0.86,0.11-1.48,0.17-1.84,0.17c-1.03,0-1.55-0.43-1.55-1.28
				c0-0.83,0.59-1.24,1.76-1.24c0.36,0,0.73,0.04,1.12,0.11c0.58,0.05,0.94,0.07,1.08,0.07c0.84,0,1.36-0.33,1.55-0.99
				C65.49,127.11,65.59,125.4,65.59,122.64z"/>
			<path class="st2" d="M82.62,110.91l-0.43,5.76c1.87-1.3,3.94-1.94,6.19-1.94c2.69,0,4.81,0.71,6.37,2.14
				c1.56,1.43,2.34,3.38,2.34,5.85c0,2.69-0.93,4.87-2.79,6.53c-1.86,1.67-4.29,2.5-7.29,2.5c-2.47,0-4.57-0.61-6.28-1.82
				c-1.72-1.21-2.57-2.69-2.57-4.45c0-0.86,0.28-1.59,0.83-2.18c0.55-0.59,1.22-0.88,2.02-0.88c0.62,0,1.13,0.18,1.53,0.54
				c0.4,0.36,0.59,0.84,0.59,1.44c0,0.41-0.14,0.76-0.41,1.06c-0.28,0.3-0.61,0.45-0.99,0.45c-0.29,0.02-0.43,0.11-0.43,0.25
				c0,0.79,0.63,1.51,1.89,2.14c1.26,0.64,2.67,0.95,4.23,0.95c1.92,0,3.5-0.59,4.73-1.78c1.24-1.19,1.85-2.71,1.85-4.55
				c0-1.78-0.52-3.17-1.57-4.19s-2.48-1.53-4.3-1.53c-2.23,0-4.01,0.65-5.33,1.94c-0.53,0.5-0.9,0.83-1.12,0.99
				c-0.22,0.16-0.49,0.26-0.83,0.31h-0.14c-0.94,0-1.4-0.53-1.4-1.58c0-0.05,0.01-0.1,0.04-0.14l0.5-6.95
				c0.02-0.38,0.05-1.04,0.07-1.98c0.02-1.32,0.12-2.13,0.29-2.43c0.17-0.3,0.61-0.45,1.33-0.45c0.29,0,0.5,0,0.65,0h1.76h2.09h4.43
				c0.7,0,1.22-0.01,1.58-0.04c0.72-0.05,1.21-0.07,1.48-0.07c0.96,0,1.44,0.71,1.44,2.12l-0.04,0.25c0,0.62,0.1,1.36,0.29,2.2
				c0.1,0.29,0.14,0.55,0.14,0.79c0,0.77-0.41,1.15-1.22,1.15c-0.77,0-1.18-0.56-1.22-1.69c-0.05-1.34-0.64-2.02-1.76-2.02h-7.52
				C83.03,109.61,82.69,110.04,82.62,110.91z"/>
			<path class="st2" d="M119.34,109.5l5.54,18.22l6.08-19.4c0.31-1.01,0.85-1.51,1.62-1.51h0.18c0.24,0,0.55,0.04,0.94,0.11
				c0.48,0.12,0.79,0.18,0.94,0.18c0.38,0.05,0.91,0.07,1.58,0.07c0.72,0,1.28-0.04,1.69-0.11l1.26-0.22
				c0.07-0.02,0.22-0.04,0.43-0.04c1.1,0,1.66,0.42,1.66,1.26c0,0.77-0.38,1.15-1.15,1.15c-0.19,0-0.47-0.03-0.85-0.09
				c-0.37-0.06-0.65-0.09-0.85-0.09c-1.22,0-1.84,0.9-1.84,2.7v2.52v3.17v3.06v5.69c0,1.8,0.6,2.7,1.8,2.7
				c0.24,0,0.5-0.04,0.79-0.11c0.53-0.05,0.84-0.07,0.94-0.07c0.77,0,1.15,0.38,1.15,1.15c0,0.86-0.52,1.3-1.55,1.3
				c0.05,0-0.13-0.02-0.54-0.07c-1.66-0.19-3.06-0.29-4.21-0.29c-1.13,0-2.21,0.08-3.24,0.25c-0.43,0.07-0.82,0.11-1.15,0.11
				c-0.94,0-1.4-0.4-1.4-1.21c0-0.83,0.48-1.24,1.45-1.24c0.24,0,0.42,0.02,0.54,0.05c0.53,0.06,0.85,0.1,0.94,0.1
				c0.87,0,1.41-0.9,1.63-2.7c0.05-0.38,0.07-1.6,0.07-3.67c0-0.79,0.02-1.94,0.07-3.45v-3.23v-6.36c0-0.14-0.06-0.22-0.18-0.22
				c-0.07,0-0.14,0.07-0.22,0.22l-6.62,20.52c-0.29,0.91-0.96,1.37-2.02,1.37c-0.62,0-1.09-0.09-1.39-0.27
				c-0.3-0.18-0.53-0.54-0.7-1.1l-6.52-20.52c-0.07-0.14-0.16-0.22-0.25-0.22c-0.1,0-0.14,0.07-0.14,0.21l0.22,16.65
				c0.02,1.74,0.5,2.61,1.44,2.61c0.26,0,0.62,0,1.08,0h0.43c0.94,0,1.4,0.41,1.4,1.22c0,0.82-0.48,1.22-1.44,1.22
				c-0.17,0-0.42-0.02-0.76-0.07c-0.53-0.07-1.09-0.16-1.69-0.25c-0.48-0.07-1.09-0.11-1.84-0.11c-1.32,0-2.17,0.04-2.56,0.11
				l-1.51,0.29c-0.05,0-0.12,0.01-0.22,0.04c-0.1,0-0.17,0-0.22,0c-1.1,0-1.66-0.42-1.66-1.26c0-0.34,0.11-0.62,0.32-0.85
				c0.22-0.23,0.48-0.34,0.79-0.34c0.26,0,0.58,0.04,0.94,0.11c0.36,0.07,0.62,0.11,0.79,0.11c1.22,0,1.84-0.9,1.84-2.7v-14.47
				c0-1.8-0.61-2.7-1.84-2.7c-0.19,0-0.48,0.03-0.86,0.09c-0.38,0.06-0.67,0.09-0.86,0.09c-0.74,0-1.12-0.38-1.12-1.15
				c0-0.84,0.54-1.26,1.62-1.26c0.1,0,0.25,0.01,0.47,0.04l1.26,0.14c0.62,0.07,1.21,0.11,1.76,0.11c0.46,0,1.07-0.05,1.85-0.14
				c0.78-0.1,1.35-0.14,1.71-0.14c0.94,0,1.56,0.59,1.87,1.76L119.34,109.5z"/>
			<path class="st2" d="M153.25,131.75c-3.05,0-5.44-1.12-7.18-3.37c-1.74-2.24-2.61-5.33-2.61-9.27c0-4.01,0.91-7.17,2.72-9.49
				c1.81-2.32,4.29-3.47,7.43-3.47c3,0,5.37,1.11,7.11,3.33c1.74,2.22,2.61,5.23,2.61,9.02c0,4.1-0.9,7.34-2.7,9.7
				C158.83,130.57,156.37,131.75,153.25,131.75z M153.54,108.82c-4.42,0-6.71,3.3-6.88,9.9v0.54c0,3.14,0.58,5.57,1.73,7.29
				c1.15,1.72,2.78,2.57,4.9,2.57c2.16,0,3.85-0.94,5.08-2.81c1.22-1.87,1.84-4.45,1.84-7.74c0-3.14-0.58-5.56-1.73-7.24
				C157.32,109.66,155.67,108.82,153.54,108.82z"/>
			<path class="st2" d="M177.19,108.53c-2.16,0-3.91,0.91-5.26,2.72c-1.34,1.81-2.1,4.28-2.27,7.4c1.51-2.62,4.01-3.92,7.49-3.92
				c2.62,0,4.75,0.77,6.41,2.3c1.66,1.54,2.48,3.5,2.48,5.9c0,2.57-0.89,4.68-2.66,6.34c-1.78,1.66-4.06,2.48-6.84,2.48
				c-3.07,0-5.49-1.02-7.25-3.06s-2.65-4.82-2.65-8.35c0-4.34,0.97-7.79,2.92-10.35c1.94-2.56,4.56-3.83,7.85-3.83
				c2.02,0,3.73,0.5,5.15,1.51s2.12,2.23,2.12,3.67c0,0.67-0.23,1.25-0.7,1.73c-0.47,0.48-1.01,0.72-1.64,0.72
				c-0.5,0-0.94-0.19-1.31-0.56c-0.37-0.37-0.56-0.82-0.56-1.35c0-0.72,0.34-1.2,1.01-1.44
				C180.75,109.17,179.32,108.53,177.19,108.53z M176.65,117.17c-1.94,0-3.48,0.53-4.61,1.6c-1.13,1.07-1.69,2.51-1.69,4.34
				c0,1.87,0.57,3.37,1.71,4.48s2.66,1.67,4.55,1.67c1.85,0,3.35-0.58,4.52-1.73s1.75-2.64,1.75-4.46c0-1.78-0.57-3.2-1.71-4.28
				C180.03,117.71,178.52,117.17,176.65,117.17z"/>
			<path class="st2" d="M198.1,129.41c2.26,0,4.04-0.89,5.36-2.68c1.32-1.79,2.02-4.24,2.09-7.36c-1.34,2.45-3.73,3.67-7.16,3.67
				c-2.5,0-4.52-0.75-6.08-2.25c-1.56-1.5-2.34-3.45-2.34-5.85c0-2.52,0.86-4.61,2.57-6.28c1.71-1.67,3.88-2.5,6.5-2.5
				c2.98,0,5.32,1.05,7.02,3.15c1.7,2.1,2.56,4.99,2.56,8.66c0,4.3-0.95,7.67-2.84,10.12c-1.9,2.45-4.51,3.67-7.85,3.67
				c-2.11,0-3.91-0.5-5.38-1.51c-1.48-1.01-2.21-2.24-2.21-3.71c0-0.7,0.22-1.28,0.67-1.75s0.99-0.7,1.64-0.7
				c0.53,0,0.98,0.17,1.37,0.52c0.38,0.35,0.58,0.76,0.58,1.24c0,0.7-0.35,1.21-1.04,1.55C194.28,128.74,195.8,129.41,198.1,129.41z
				 M199.11,108.71c-1.8,0-3.26,0.56-4.37,1.69c-1.12,1.13-1.67,2.59-1.67,4.39c0,1.75,0.53,3.14,1.58,4.18
				c1.06,1.03,2.47,1.55,4.25,1.55c1.87,0,3.34-0.52,4.41-1.55c1.07-1.03,1.6-2.44,1.6-4.21c0-1.82-0.53-3.29-1.6-4.39
				C202.24,109.26,200.84,108.71,199.11,108.71z"/>
			<path class="st2" d="M231.84,106.16c2.41,0,4.59,0.9,6.54,2.7c-0.1-0.34-0.14-0.53-0.14-0.58c-0.05-0.48-0.07-0.74-0.07-0.79
				c0-0.79,0.4-1.19,1.19-1.19c0.86,0,1.3,0.52,1.3,1.55c0,0.34-0.01,0.59-0.04,0.76l-0.28,1.73c-0.08,0.5-0.12,1.04-0.12,1.62
				c0,0.46,0.05,1.43,0.14,2.92v0.32c0,1.08-0.44,1.62-1.33,1.62c-0.84,0-1.26-0.59-1.26-1.76v-1.08c0-1.66-0.54-2.96-1.63-3.92
				s-2.56-1.44-4.4-1.44c-2.32,0-4.14,0.9-5.46,2.7c-1.32,1.8-1.97,4.27-1.97,7.42c0,3.34,0.68,5.94,2.03,7.81
				c1.36,1.87,3.23,2.81,5.63,2.81c1.85,0,3.28-0.54,4.28-1.63c1.01-1.08,1.51-2.63,1.51-4.63c0-0.82-0.14-1.39-0.41-1.72
				c-0.28-0.33-0.76-0.49-1.46-0.49c-0.19,0-0.47,0.01-0.83,0.04c-0.36,0.02-0.64,0.04-0.83,0.04c-1.15,0-1.73-0.41-1.73-1.22
				c0-0.84,0.49-1.26,1.48-1.26c0.31,0,0.66,0.03,1.04,0.08c1.51,0.21,2.72,0.32,3.64,0.32c1.18,0,2.42-0.11,3.74-0.32
				c0.29-0.05,0.61-0.07,0.97-0.07c0.96,0,1.44,0.4,1.44,1.19c0,0.34-0.13,0.62-0.38,0.86c-0.25,0.24-0.55,0.36-0.88,0.36
				c-0.29,0-0.5,0-0.65,0c-0.05,0-0.13,0-0.25,0s-0.22,0-0.29,0c-1.06,0-1.58,1.17-1.58,3.5v2.86c0,0.62,0.02,1.18,0.07,1.68
				c0.05,0.5,0.07,0.89,0.07,1.18c0,0.98-0.43,1.47-1.3,1.47c-0.84,0-1.26-0.42-1.26-1.26l0.07-0.86c0.02-0.22,0.05-0.59,0.07-1.12
				c-0.55,0.74-0.98,1.26-1.3,1.55c-1.39,1.25-3.32,1.87-5.8,1.87c-3.1,0-5.59-1.15-7.49-3.46c-1.9-2.3-2.84-5.32-2.84-9.04
				c0-3.98,0.97-7.16,2.91-9.54C225.96,107.34,228.57,106.16,231.84,106.16z"/>
			<path class="st2" d="M261.64,108.71v12.42h4.25c0.79,0,1.19,0.41,1.19,1.22c0,0.82-0.42,1.22-1.26,1.22h-4.18v2.2
				c0,1.99,0.54,2.99,1.62,2.99c0.29,0,0.94-0.05,1.94-0.14c1.01,0,1.51,0.41,1.51,1.22c0,0.84-0.43,1.26-1.3,1.26
				c-0.53,0-1.24-0.07-2.12-0.22c-0.74-0.12-1.67-0.18-2.77-0.18c-0.67,0-1.68,0.07-3.02,0.2c-1.34,0.13-2.35,0.2-3.02,0.2
				c-0.91,0-1.37-0.4-1.37-1.21c0-0.85,0.55-1.28,1.66-1.28c0.24,0,0.59,0.02,1.06,0.07c0.47,0.05,0.82,0.07,1.06,0.07
				c1.2,0,1.8-1,1.8-2.99v-2.2h-11.16c-1.1,0-1.66-0.48-1.66-1.44c0-0.38,0.13-0.77,0.4-1.15l9.54-11.84
				c1.01-1.25,1.75-2.06,2.23-2.43c0.48-0.37,1.03-0.56,1.66-0.56C261,106.16,261.64,107.01,261.64,108.71z M249.37,121.13h9.32
				l0.25-11.77L249.37,121.13z"/>
			<path class="st2" d="M273.65,124.41c-0.54,0.62-0.87,1.38-0.99,2.27c1.08-1.15,2.39-1.73,3.92-1.73c1.42,0,2.9,0.62,4.46,1.87
				c1.73,1.37,3.06,2.05,4,2.05c0.67,0,1.22-0.22,1.64-0.67c0.42-0.44,0.63-1.01,0.63-1.71c0-0.24-0.05-0.5-0.14-0.79
				c-0.38,0.38-0.82,0.58-1.3,0.58c-1.03,0-1.55-0.5-1.55-1.51c0-0.55,0.2-1.01,0.61-1.37c0.41-0.36,0.95-0.54,1.62-0.54
				c0.89,0,1.6,0.32,2.14,0.95c0.54,0.64,0.81,1.48,0.81,2.54c0,1.49-0.47,2.76-1.4,3.82c-0.94,1.06-2.08,1.58-3.42,1.58
				c-1.27,0-2.8-0.68-4.59-2.05c-1.79-1.37-3.35-2.05-4.7-2.05c-1.34,0-2.18,0.48-2.52,1.44c0.24,0,0.38,0,0.43,0
				c0.7,0,1.04,0.35,1.04,1.04c0,1.08-0.6,1.62-1.8,1.62c-0.79,0-1.43-0.34-1.93-1.03c-0.49-0.68-0.74-1.6-0.74-2.75
				c0-4.2,2.89-7.22,8.68-9.07l2.59-0.83c2.9-0.94,4.36-2.51,4.36-4.72c0-1.49-0.52-2.66-1.57-3.53s-2.48-1.3-4.3-1.3
				c-1.61,0-2.94,0.32-4,0.97c-1.06,0.65-1.68,1.54-1.87,2.66c1.3,0.1,1.94,0.66,1.94,1.69c0,0.62-0.23,1.16-0.68,1.6
				c-0.46,0.44-1.02,0.67-1.69,0.67c-0.82,0-1.47-0.28-1.96-0.85c-0.49-0.56-0.74-1.3-0.74-2.21c0-1.97,0.89-3.61,2.66-4.93
				c1.78-1.32,3.97-1.98,6.59-1.98c2.54,0,4.63,0.67,6.25,2s2.43,3.05,2.43,5.17c0,1.44-0.39,2.71-1.17,3.82
				c-0.78,1.1-1.87,1.93-3.26,2.48c-0.43,0.17-1.87,0.67-4.32,1.51c-1.75,0.6-3.16,1.18-4.21,1.73
				C274.84,123.27,274.19,123.78,273.65,124.41z"/>
			<path class="st2" d="M-6.73,152.7l5.54,18.22l6.08-19.4c0.31-1.01,0.85-1.51,1.62-1.51h0.18c0.24,0,0.55,0.04,0.94,0.11
				c0.48,0.12,0.79,0.18,0.94,0.18c0.38,0.05,0.91,0.07,1.58,0.07c0.72,0,1.28-0.04,1.69-0.11l1.26-0.22
				c0.07-0.02,0.22-0.04,0.43-0.04c1.1,0,1.66,0.42,1.66,1.26c0,0.77-0.38,1.15-1.15,1.15c-0.19,0-0.47-0.03-0.85-0.09
				c-0.37-0.06-0.65-0.09-0.85-0.09c-1.22,0-1.84,0.9-1.84,2.7v2.52v3.17v3.06v5.69c0,1.8,0.6,2.7,1.8,2.7
				c0.24,0,0.5-0.04,0.79-0.11c0.53-0.05,0.84-0.07,0.94-0.07c0.77,0,1.15,0.38,1.15,1.15c0,0.86-0.52,1.3-1.55,1.3
				c0.05,0-0.13-0.02-0.54-0.07c-1.66-0.19-3.06-0.29-4.21-0.29c-1.13,0-2.21,0.08-3.24,0.25c-0.43,0.07-0.82,0.11-1.15,0.11
				c-0.94,0-1.4-0.4-1.4-1.21c0-0.83,0.48-1.24,1.45-1.24c0.24,0,0.42,0.02,0.54,0.05c0.53,0.06,0.85,0.1,0.94,0.1
				c0.87,0,1.41-0.9,1.63-2.7c0.05-0.38,0.07-1.6,0.07-3.67c0-0.79,0.02-1.94,0.07-3.45v-3.23v-6.36c0-0.14-0.06-0.22-0.18-0.22
				c-0.07,0-0.14,0.07-0.22,0.22l-6.62,20.52c-0.29,0.91-0.96,1.37-2.02,1.37c-0.62,0-1.09-0.09-1.39-0.27
				c-0.3-0.18-0.53-0.54-0.7-1.1l-6.52-20.52c-0.07-0.14-0.16-0.22-0.25-0.22c-0.1,0-0.14,0.07-0.14,0.21l0.22,16.65
				c0.02,1.74,0.5,2.61,1.44,2.61c0.26,0,0.62,0,1.08,0h0.43c0.94,0,1.4,0.41,1.4,1.22c0,0.82-0.48,1.22-1.44,1.22
				c-0.17,0-0.42-0.02-0.76-0.07c-0.53-0.07-1.09-0.16-1.69-0.25c-0.48-0.07-1.09-0.11-1.84-0.11c-1.32,0-2.17,0.04-2.56,0.11
				l-1.51,0.29c-0.05,0-0.12,0.01-0.22,0.04c-0.1,0-0.17,0-0.22,0c-1.1,0-1.66-0.42-1.66-1.26c0-0.34,0.11-0.62,0.32-0.85
				c0.22-0.23,0.48-0.34,0.79-0.34c0.26,0,0.58,0.04,0.94,0.11c0.36,0.07,0.62,0.11,0.79,0.11c1.22,0,1.84-0.9,1.84-2.7v-14.47
				c0-1.8-0.61-2.7-1.84-2.7c-0.19,0-0.48,0.03-0.86,0.09c-0.38,0.06-0.67,0.09-0.86,0.09c-0.74,0-1.12-0.38-1.12-1.15
				c0-0.84,0.54-1.26,1.62-1.26c0.1,0,0.25,0.01,0.47,0.04l1.26,0.14c0.62,0.07,1.21,0.11,1.76,0.11c0.46,0,1.07-0.05,1.85-0.14
				c0.78-0.1,1.35-0.14,1.71-0.14c0.94,0,1.56,0.59,1.87,1.76L-6.73,152.7z"/>
			<path class="st2" d="M27.18,174.95c-3.05,0-5.44-1.12-7.18-3.37c-1.74-2.24-2.61-5.33-2.61-9.27c0-4.01,0.91-7.17,2.72-9.49
				c1.81-2.32,4.29-3.47,7.43-3.47c3,0,5.37,1.11,7.11,3.33c1.74,2.22,2.61,5.23,2.61,9.02c0,4.1-0.9,7.34-2.7,9.7
				C32.76,173.77,30.3,174.95,27.18,174.95z M27.47,152.02c-4.42,0-6.71,3.3-6.88,9.9v0.54c0,3.14,0.58,5.57,1.73,7.29
				c1.15,1.72,2.78,2.57,4.9,2.57c2.16,0,3.85-0.94,5.08-2.81c1.22-1.87,1.84-4.45,1.84-7.74c0-3.14-0.58-5.56-1.73-7.24
				C31.25,152.86,29.6,152.02,27.47,152.02z"/>
			<path class="st2" d="M47.81,160.15l7.49-7.34h-8.35c-0.94,0-1.56,0.06-1.87,0.18c-0.6,0.19-0.9,0.66-0.9,1.4
				c0,0.24,0.02,0.59,0.07,1.04c0.05,0.46,0.07,0.8,0.07,1.04c0,1.25-0.42,1.87-1.26,1.87c-0.82,0-1.22-0.52-1.22-1.55
				c0-0.29,0.02-0.73,0.05-1.31c0.04-0.59,0.05-1.03,0.05-1.31c0-0.67,0-1.17,0-1.51c0-0.34,0-0.71,0-1.12
				c0-0.65,0.12-1.05,0.36-1.21c0.24-0.16,0.84-0.23,1.79-0.23h8.82c0.48,0,1.29-0.02,2.44-0.07c0.57-0.02,1.24-0.04,2.01-0.04
				c1.41,0,2.12,0.43,2.12,1.29c0,0.55-0.3,1.11-0.9,1.69l-6.62,6.35c0.14,0,0.34,0,0.58,0c0.22,0,0.37,0,0.47,0
				c2.04,0,3.71,0.65,5.02,1.96c1.31,1.31,1.96,2.98,1.96,5.02c0,2.54-0.93,4.62-2.79,6.23c-1.86,1.61-4.25,2.41-7.18,2.41
				c-2.69,0-4.93-0.65-6.73-1.96c-1.8-1.31-2.7-2.95-2.7-4.91c0-1.13,0.32-2.08,0.97-2.86c0.65-0.78,1.45-1.17,2.41-1.17
				c0.62,0,1.13,0.19,1.53,0.56s0.59,0.86,0.59,1.46c0,1.2-0.71,1.8-2.12,1.8h-0.4v0.25c0,1.18,0.65,2.2,1.96,3.06
				c1.31,0.86,2.85,1.3,4.63,1.3c1.99,0,3.62-0.57,4.9-1.71c1.27-1.14,1.91-2.6,1.91-4.37c0-3.12-1.78-4.68-5.33-4.68
				c-0.94,0-1.91,0.11-2.92,0.32c-0.22,0.05-0.42,0.07-0.61,0.07c-0.58,0-0.86-0.31-0.86-0.94
				C47.23,160.87,47.42,160.54,47.81,160.15z"/>
			<path class="st2" d="M74.05,151.73c-2.16,0-3.91,0.91-5.26,2.72c-1.34,1.81-2.1,4.28-2.27,7.4c1.51-2.62,4.01-3.92,7.49-3.92
				c2.62,0,4.75,0.77,6.41,2.3c1.66,1.54,2.48,3.5,2.48,5.9c0,2.57-0.89,4.68-2.66,6.34c-1.78,1.66-4.06,2.48-6.84,2.48
				c-3.07,0-5.49-1.02-7.25-3.06c-1.76-2.04-2.65-4.82-2.65-8.35c0-4.34,0.97-7.79,2.92-10.35c1.94-2.56,4.56-3.83,7.85-3.83
				c2.02,0,3.73,0.5,5.15,1.51s2.12,2.23,2.12,3.67c0,0.67-0.23,1.25-0.7,1.73c-0.47,0.48-1.01,0.72-1.64,0.72
				c-0.5,0-0.94-0.19-1.31-0.56c-0.37-0.37-0.56-0.82-0.56-1.35c0-0.72,0.34-1.2,1.01-1.44C77.61,152.37,76.18,151.73,74.05,151.73z
				 M73.51,160.37c-1.94,0-3.48,0.53-4.61,1.6c-1.13,1.07-1.69,2.51-1.69,4.34c0,1.87,0.57,3.37,1.71,4.48
				c1.14,1.12,2.66,1.67,4.55,1.67c1.85,0,3.35-0.58,4.52-1.73s1.75-2.64,1.75-4.46c0-1.78-0.57-3.2-1.71-4.28
				C76.89,160.91,75.38,160.37,73.51,160.37z"/>
			<path class="st2" d="M257.75,169.45l6.37-7.82l-6.59-7.71c-0.82-0.96-1.56-1.43-2.23-1.43c-0.19,0-0.46,0-0.81,0
				c-0.35,0-0.62,0-0.81,0c-0.98,0-1.48-0.43-1.48-1.3c0-0.82,0.52-1.22,1.55-1.22c0.12,0,0.88,0.12,2.27,0.36
				c0.67,0.1,1.34,0.14,2.02,0.14c1.27,0,2.69-0.13,4.25-0.39c0.48-0.08,0.9-0.12,1.26-0.12c0.96,0,1.44,0.41,1.44,1.24
				c0,0.85-0.48,1.28-1.44,1.28c-0.07,0-0.18,0-0.32,0c-0.14,0-0.25,0-0.32,0c-0.31-0.06-0.65-0.11-1.03-0.17
				c-0.37-0.06-0.62-0.08-0.74-0.08c-0.29,0-0.43,0.08-0.43,0.25c0,0.1,0.07,0.24,0.22,0.43l5,6.55l4.93-6.26
				c0.19-0.24,0.29-0.46,0.29-0.65s-0.16-0.29-0.47-0.29c-0.19,0-0.37,0.01-0.54,0.04c-0.7,0.12-1.25,0.17-1.66,0.17
				c-0.96,0-1.44-0.43-1.44-1.3c0-0.82,0.44-1.22,1.33-1.22c0.36,0,0.82,0.05,1.37,0.16c1.1,0.21,2.25,0.31,3.46,0.31
				c0.74,0,1.79-0.11,3.13-0.32c0.6-0.1,0.98-0.14,1.15-0.14c0.98,0,1.48,0.42,1.48,1.26s-0.44,1.26-1.33,1.26
				c-0.17,0-0.42-0.03-0.76-0.09c-0.34-0.06-0.59-0.09-0.76-0.09c-0.58,0-1.28,0.51-2.12,1.54l-6.34,7.71l6.77,8.18
				c1.18,1.43,2.14,2.15,2.88,2.15c0.05,0,0.13,0,0.25,0c0.1,0,0.17,0,0.22,0c0.14,0,0.34,0,0.58,0c0.89,0,1.33,0.4,1.33,1.19
				c0,0.84-0.47,1.26-1.4,1.26c-0.24,0-0.66-0.05-1.26-0.14c-1.37-0.22-2.48-0.32-3.35-0.32c-0.96,0-2.02,0.1-3.17,0.29
				c-0.72,0.12-1.3,0.18-1.73,0.18c-1.03,0-1.55-0.42-1.55-1.26c0-0.79,0.49-1.19,1.48-1.19c0.41,0,0.82,0,1.22,0h1.12h0.25
				c0.38,0,0.58-0.12,0.58-0.36c0-0.19-0.23-0.57-0.68-1.15l-5.36-6.7l-5.26,6.67c-0.43,0.55-0.65,0.93-0.65,1.14
				c0,0.26,0.17,0.39,0.5,0.39h0.07l0.83-0.04l1.08-0.04c0.36-0.01,0.66-0.02,0.9-0.02c1.06,0,1.58,0.42,1.58,1.26
				c0,0.86-0.46,1.3-1.37,1.3c-0.29,0-0.76-0.06-1.4-0.18c-1.18-0.22-2.35-0.32-3.53-0.32c-1.34,0-2.68,0.12-4,0.36
				c-0.53,0.1-0.95,0.14-1.26,0.14c-1.01,0-1.51-0.43-1.51-1.3c0-0.84,0.44-1.26,1.33-1.26c0.14,0,0.37,0.02,0.67,0.05
				s0.52,0.05,0.67,0.05c0.55,0,1.03-0.15,1.42-0.45C256.3,171.14,256.91,170.48,257.75,169.45z"/>
			<path class="st2" d="M-37.55,199.06l5.08,15.31l4.82-15.05c0.36-1.15,0.54-1.97,0.54-2.45c0-0.91-0.48-1.37-1.44-1.37
				c-0.17,0-0.43,0.03-0.79,0.09s-0.62,0.09-0.79,0.09c-0.94,0-1.4-0.42-1.4-1.26c0-0.82,0.46-1.22,1.37-1.22
				c0.5,0,1.27,0.07,2.29,0.22c1.02,0.14,1.79,0.22,2.32,0.22c0.86,0,1.93-0.11,3.2-0.32c0.41-0.07,0.79-0.11,1.15-0.11
				c0.89,0,1.33,0.42,1.33,1.26c0,0.82-0.44,1.22-1.33,1.22c-0.02,0-0.07-0.01-0.14-0.04l-0.83-0.07h-0.18
				c-0.41,0-0.74,0.2-0.99,0.59c-0.25,0.4-0.61,1.25-1.06,2.57l-5.9,17.32c-0.41,1.18-1.16,1.76-2.27,1.76
				c-1.15,0-1.93-0.59-2.34-1.76l-6.44-18.08c-0.31-0.89-0.56-1.45-0.76-1.69c-0.34-0.41-0.86-0.61-1.58-0.61c-0.14,0-0.37,0-0.68,0
				c-0.31,0-0.54,0-0.68,0c-0.94,0-1.4-0.41-1.4-1.22c0-0.84,0.48-1.26,1.44-1.26c0.29,0,0.61,0.03,0.97,0.1
				c1.34,0.25,2.53,0.37,3.56,0.37c0.6,0,1.49-0.08,2.66-0.23c1.18-0.16,2.05-0.23,2.63-0.23c0.89,0,1.33,0.4,1.33,1.19
				c0,0.86-0.46,1.3-1.37,1.3c-0.05,0-0.16,0-0.32,0c-0.14,0-0.26,0-0.36,0c-0.14,0-0.35,0-0.61,0c-1.06,0-1.58,0.33-1.58,1
				c0,0.33,0.06,0.69,0.18,1.08L-37.55,199.06z"/>
			<path class="st2" d="M-8.79,218.15c-3.05,0-5.44-1.12-7.18-3.37c-1.74-2.24-2.61-5.33-2.61-9.27c0-4.01,0.91-7.17,2.72-9.49
				c1.81-2.32,4.29-3.47,7.43-3.47c3,0,5.37,1.11,7.11,3.33c1.74,2.22,2.61,5.23,2.61,9.02c0,4.1-0.9,7.34-2.7,9.7
				C-3.21,216.97-5.67,218.15-8.79,218.15z M-8.5,195.22c-4.42,0-6.71,3.3-6.88,9.9v0.54c0,3.14,0.58,5.57,1.73,7.29
				c1.15,1.72,2.78,2.57,4.9,2.57c2.16,0,3.85-0.94,5.08-2.81c1.22-1.87,1.84-4.45,1.84-7.74c0-3.14-0.58-5.56-1.73-7.24
				C-4.72,196.06-6.36,195.22-8.5,195.22z"/>
			<path class="st2" d="M7.85,194.72l-0.07,0.4c0.6-0.96,1.14-1.61,1.62-1.94c0.48-0.33,1.13-0.5,1.94-0.5
				c1.18,0,2.56,0.61,4.14,1.84c1.78,1.37,3.14,2.05,4.1,2.05c1.01,0,1.63-0.35,1.87-1.04h-0.29c-0.34,0-0.64-0.15-0.92-0.44
				s-0.41-0.62-0.41-0.98c0-0.46,0.17-0.86,0.52-1.18c0.35-0.33,0.76-0.49,1.24-0.49c1.58,0,2.38,1.07,2.38,3.21
				c0,1.59-0.4,2.99-1.19,4.19c-0.5,0.75-1.04,1.4-1.62,1.95c-0.26,0.26-0.79,0.75-1.58,1.44c-1.63,1.42-2.75,2.73-3.35,3.93
				c-0.86,1.71-1.3,3.78-1.3,6.21c0-0.05,0.01,0.22,0.04,0.79c0.05,1.16,0.07,1.67,0.07,1.55c0,1.52-0.6,2.27-1.8,2.27
				c-1.25,0-1.87-0.98-1.87-2.95c0-3.1,0.58-5.8,1.73-8.1c0.94-1.87,2.93-4.06,5.98-6.55c1.25-1.03,1.96-1.88,2.12-2.56
				c-0.82,0.7-1.86,1.04-3.11,1.04c-1.54,0-3.05-0.55-4.52-1.66l-1.48-1.12c-0.53-0.38-1.12-0.58-1.77-0.58
				c-1.54,0-2.32,0.98-2.32,2.95c0,0.6,0.06,1.14,0.17,1.62c0.2,0.84,0.3,1.46,0.3,1.87c0,0.41-0.14,0.76-0.41,1.04
				c-0.28,0.29-0.62,0.43-1.03,0.43c-0.96,0-1.44-0.52-1.44-1.55c0-0.41,0.05-1.03,0.16-1.87s0.16-1.49,0.16-1.94
				c0-0.67-0.04-1.39-0.11-2.16c-0.07-0.77-0.11-1.44-0.11-2.02c0-0.98,0.42-1.48,1.26-1.48c0.7,0,1.04,0.42,1.04,1.26
				C7.99,193.84,7.94,194.19,7.85,194.72z"/>
			<path class="st2" d="M40.35,209.33c0-0.38,0.17-0.71,0.5-0.97c-0.22-0.12-0.4-0.18-0.54-0.18c-0.53,0-0.99,0.28-1.39,0.85
				c-0.4,0.56-0.59,1.22-0.59,1.96c0,1.32,0.52,2.41,1.55,3.28c1.03,0.86,2.35,1.3,3.96,1.3c3.62,0,5.64-1.63,6.05-4.9
				c0.17-1.37,0.25-3.25,0.25-5.65v-1.15v-5.72c0-1.78-0.62-2.66-1.85-2.66c-0.34,0-0.59,0.02-0.76,0.07
				c-0.39,0.07-0.71,0.11-0.98,0.11c-0.31,0-0.58-0.11-0.8-0.34c-0.22-0.23-0.33-0.51-0.33-0.85c0-0.84,0.53-1.26,1.58-1.26
				c0.14,0,0.31,0.01,0.5,0.04l1.91,0.25c0.72,0.1,1.46,0.14,2.23,0.14c0.72,0,1.54-0.06,2.45-0.18l1.66-0.22
				c0.1-0.02,0.26-0.04,0.5-0.04c1.06,0,1.58,0.42,1.58,1.26c0,0.79-0.38,1.19-1.15,1.19c-0.24,0-0.56-0.04-0.97-0.11
				c-0.17-0.05-0.42-0.07-0.76-0.07c-1.22,0-1.84,0.89-1.84,2.66v6.88c0,3.6-0.14,6.01-0.43,7.24c-0.26,1.08-0.8,2.08-1.62,2.99
				c-1.75,1.94-4.13,2.92-7.13,2.92c-2.52,0-4.57-0.65-6.14-1.96c-1.57-1.31-2.36-2.99-2.36-5.06c0-1.54,0.49-2.83,1.46-3.87
				c0.97-1.04,2.18-1.57,3.62-1.57c1.03,0,1.87,0.27,2.52,0.81c0.65,0.54,0.97,1.24,0.97,2.11c0,0.6-0.19,1.12-0.58,1.57
				s-0.84,0.67-1.37,0.67c-0.46,0-0.86-0.15-1.21-0.45C40.53,210.09,40.35,209.74,40.35,209.33z"/>
			<path class="st2" d="M62.48,210.81c-0.54,0.62-0.87,1.38-0.99,2.27c1.08-1.15,2.39-1.73,3.92-1.73c1.42,0,2.9,0.62,4.46,1.87
				c1.73,1.37,3.06,2.05,4,2.05c0.67,0,1.22-0.22,1.64-0.67c0.42-0.44,0.63-1.01,0.63-1.71c0-0.24-0.05-0.5-0.14-0.79
				c-0.38,0.38-0.82,0.58-1.3,0.58c-1.03,0-1.55-0.5-1.55-1.51c0-0.55,0.2-1.01,0.61-1.37c0.41-0.36,0.95-0.54,1.62-0.54
				c0.89,0,1.6,0.32,2.14,0.95c0.54,0.64,0.81,1.48,0.81,2.54c0,1.49-0.47,2.76-1.4,3.82s-2.08,1.58-3.42,1.58
				c-1.27,0-2.8-0.68-4.59-2.05c-1.79-1.37-3.35-2.05-4.7-2.05c-1.34,0-2.18,0.48-2.52,1.44c0.24,0,0.38,0,0.43,0
				c0.7,0,1.04,0.35,1.04,1.04c0,1.08-0.6,1.62-1.8,1.62c-0.79,0-1.43-0.34-1.93-1.03c-0.49-0.68-0.74-1.6-0.74-2.75
				c0-4.2,2.89-7.22,8.68-9.07l2.59-0.83c2.9-0.94,4.36-2.51,4.36-4.72c0-1.49-0.52-2.66-1.57-3.53s-2.48-1.3-4.3-1.3
				c-1.61,0-2.94,0.32-4,0.97c-1.06,0.65-1.68,1.54-1.87,2.66c1.3,0.1,1.94,0.66,1.94,1.69c0,0.62-0.23,1.16-0.68,1.6
				c-0.46,0.44-1.02,0.67-1.69,0.67c-0.82,0-1.47-0.28-1.96-0.85c-0.49-0.56-0.74-1.3-0.74-2.21c0-1.97,0.89-3.61,2.66-4.93
				c1.78-1.32,3.97-1.98,6.59-1.98c2.54,0,4.63,0.67,6.25,2c1.62,1.33,2.43,3.05,2.43,5.17c0,1.44-0.39,2.71-1.17,3.82
				c-0.78,1.1-1.87,1.93-3.26,2.48c-0.43,0.17-1.87,0.67-4.32,1.51c-1.75,0.6-3.16,1.18-4.21,1.73
				C63.67,209.67,63.02,210.18,62.48,210.81z"/>
			<path class="st2" d="M84.99,194.72l-0.07,0.4c0.6-0.96,1.14-1.61,1.62-1.94c0.48-0.33,1.13-0.5,1.94-0.5
				c1.18,0,2.56,0.61,4.14,1.84c1.78,1.37,3.14,2.05,4.1,2.05c1.01,0,1.63-0.35,1.87-1.04h-0.29c-0.34,0-0.64-0.15-0.92-0.44
				s-0.41-0.62-0.41-0.98c0-0.46,0.17-0.86,0.52-1.18c0.35-0.33,0.76-0.49,1.24-0.49c1.58,0,2.38,1.07,2.38,3.21
				c0,1.59-0.4,2.99-1.19,4.19c-0.5,0.75-1.04,1.4-1.62,1.95c-0.26,0.26-0.79,0.75-1.58,1.44c-1.63,1.42-2.75,2.73-3.35,3.93
				c-0.86,1.71-1.3,3.78-1.3,6.21c0-0.05,0.01,0.22,0.04,0.79c0.05,1.16,0.07,1.67,0.07,1.55c0,1.52-0.6,2.27-1.8,2.27
				c-1.25,0-1.87-0.98-1.87-2.95c0-3.1,0.58-5.8,1.73-8.1c0.94-1.87,2.93-4.06,5.98-6.55c1.25-1.03,1.96-1.88,2.12-2.56
				c-0.82,0.7-1.86,1.04-3.11,1.04c-1.54,0-3.05-0.55-4.52-1.66l-1.48-1.12c-0.53-0.38-1.12-0.58-1.77-0.58
				c-1.54,0-2.32,0.98-2.32,2.95c0,0.6,0.06,1.14,0.17,1.62c0.2,0.84,0.3,1.46,0.3,1.87c0,0.41-0.14,0.76-0.41,1.04
				c-0.28,0.29-0.62,0.43-1.03,0.43c-0.96,0-1.44-0.52-1.44-1.55c0-0.41,0.05-1.03,0.16-1.87s0.16-1.49,0.16-1.94
				c0-0.67-0.04-1.39-0.11-2.16c-0.07-0.77-0.11-1.44-0.11-2.02c0-0.98,0.42-1.48,1.26-1.48c0.7,0,1.04,0.42,1.04,1.26
				C85.14,193.84,85.09,194.19,84.99,194.72z"/>
			<path class="st2" d="M130.75,213.29l-1.3-3.53c-0.14-0.38-0.29-0.62-0.45-0.72c-0.16-0.1-0.47-0.14-0.95-0.14h-6.41
				c-0.48,0-0.81,0.08-0.99,0.25s-0.41,0.62-0.7,1.37l-1.04,2.77c-0.1,0.26-0.14,0.52-0.14,0.76c0,0.77,0.47,1.15,1.4,1.15
				c0.24,0,0.58-0.02,1.03-0.07c0.44-0.05,0.77-0.07,0.99-0.07c0.98,0,1.48,0.42,1.48,1.26c0,0.79-0.54,1.19-1.62,1.19
				c-0.19,0-0.46-0.02-0.79-0.07l-1.8-0.22c-0.34-0.04-0.89-0.06-1.66-0.06c-0.84,0-1.43,0.02-1.76,0.06l-1.51,0.18
				c-0.67,0.08-1.16,0.12-1.48,0.12c-0.94,0-1.4-0.4-1.4-1.19c0-0.84,0.46-1.26,1.37-1.26c0.19,0,0.34,0.05,0.43,0.14h0.47
				c0.65,0,1.14-0.25,1.48-0.76c0.14-0.19,0.38-0.76,0.72-1.7l6.7-18.17c0.38-1.01,1.14-1.52,2.27-1.52c1.1,0,1.84,0.5,2.2,1.51
				l6.44,17.86c0.41,1.13,0.78,1.87,1.12,2.23c0.34,0.36,0.82,0.54,1.44,0.54c0.19,0,0.34-0.02,0.43-0.05l1.01-0.1
				c0.91,0,1.37,0.4,1.37,1.19c0,0.84-0.46,1.26-1.37,1.26c-0.26,0-0.61-0.03-1.04-0.08c-1.51-0.19-2.64-0.28-3.38-0.28
				c-0.89,0-2.33,0.1-4.32,0.29c-0.5,0.05-0.89,0.07-1.15,0.07c-0.96,0-1.44-0.41-1.44-1.22c0-0.82,0.53-1.22,1.58-1.22
				c0.22,0,0.53,0.02,0.95,0.07c0.42,0.05,0.74,0.07,0.95,0.07c0.79,0,1.19-0.32,1.19-0.97
				C131.04,214.13,130.94,213.82,130.75,213.29z M128.16,205.95l-3.24-9.94l-3.31,9.94c-0.05,0.14-0.07,0.23-0.07,0.25
				c0,0.22,0.18,0.32,0.54,0.32h5.72c0.29,0,0.43-0.1,0.43-0.29C128.23,206.19,128.21,206.09,128.16,205.95z"/>
			<path class="st2" d="M148.96,209.04l-0.11-10.44c-0.02-1.22-0.15-2.04-0.38-2.45c-0.23-0.41-0.68-0.61-1.35-0.61
				c-0.24,0-0.59,0.03-1.04,0.09c-0.46,0.06-0.8,0.09-1.04,0.09c-0.94,0-1.4-0.42-1.4-1.26c0-0.84,0.44-1.26,1.33-1.26
				c0.29,0,0.74,0.03,1.35,0.09c0.61,0.06,1.09,0.09,1.42,0.09c0.77,0,1.4-0.02,1.91-0.07c0.74-0.07,1.2-0.11,1.37-0.11
				c0.53,0,0.85,0.16,0.97,0.47c0.1,0.22,0.14,0.59,0.14,1.12c0,0.07-0.01,0.36-0.04,0.86c-0.12,2.57-0.18,4.9-0.18,6.98v4.07
				c0,0.74,0.01,1.74,0.04,2.99c0.05,1.51,0.07,2.51,0.07,2.99c0.02,1.66,0.58,2.48,1.66,2.48c0.26,0,0.66-0.03,1.19-0.09
				c0.53-0.06,0.92-0.09,1.19-0.09c1.15,0,1.73,0.42,1.73,1.26c0,0.84-0.53,1.26-1.58,1.26c-0.41,0-0.79-0.02-1.15-0.07
				c-2.02-0.26-3.55-0.4-4.61-0.4c-1.06,0-2.35,0.1-3.89,0.3c-0.86,0.11-1.48,0.17-1.84,0.17c-1.03,0-1.55-0.43-1.55-1.28
				c0-0.83,0.59-1.24,1.76-1.24c0.36,0,0.73,0.04,1.12,0.11c0.58,0.05,0.94,0.07,1.08,0.07c0.84,0,1.36-0.33,1.55-0.99
				C148.87,213.51,148.96,211.8,148.96,209.04z"/>
			<path class="st2" d="M165.99,197.31l-0.43,5.76c1.87-1.3,3.94-1.94,6.19-1.94c2.69,0,4.81,0.71,6.37,2.14
				c1.56,1.43,2.34,3.38,2.34,5.85c0,2.69-0.93,4.87-2.79,6.53c-1.86,1.67-4.29,2.5-7.29,2.5c-2.47,0-4.57-0.61-6.28-1.82
				c-1.72-1.21-2.57-2.69-2.57-4.45c0-0.86,0.28-1.59,0.83-2.18c0.55-0.59,1.22-0.88,2.02-0.88c0.62,0,1.13,0.18,1.53,0.54
				c0.4,0.36,0.59,0.84,0.59,1.44c0,0.41-0.14,0.76-0.41,1.06c-0.28,0.3-0.61,0.45-0.99,0.45c-0.29,0.02-0.43,0.11-0.43,0.25
				c0,0.79,0.63,1.51,1.89,2.14c1.26,0.64,2.67,0.95,4.23,0.95c1.92,0,3.5-0.59,4.73-1.78c1.24-1.19,1.85-2.71,1.85-4.55
				c0-1.78-0.52-3.17-1.57-4.19s-2.48-1.53-4.3-1.53c-2.23,0-4.01,0.65-5.33,1.94c-0.53,0.5-0.9,0.83-1.12,0.99
				c-0.22,0.16-0.49,0.26-0.83,0.31h-0.14c-0.94,0-1.4-0.53-1.4-1.58c0-0.05,0.01-0.1,0.04-0.14l0.5-6.95
				c0.02-0.38,0.05-1.04,0.07-1.98c0.02-1.32,0.12-2.13,0.29-2.43c0.17-0.3,0.61-0.45,1.33-0.45c0.29,0,0.5,0,0.65,0h1.76h2.09h4.43
				c0.7,0,1.22-0.01,1.58-0.04c0.72-0.05,1.21-0.07,1.48-0.07c0.96,0,1.44,0.71,1.44,2.12l-0.04,0.25c0,0.62,0.1,1.36,0.29,2.2
				c0.1,0.29,0.14,0.55,0.14,0.79c0,0.77-0.41,1.15-1.22,1.15c-0.77,0-1.18-0.56-1.22-1.69c-0.05-1.34-0.64-2.02-1.76-2.02H167
				C166.4,196.01,166.06,196.44,165.99,197.31z"/>
			<path class="st2" d="M213.12,199c0,2.45-1.39,4.18-4.18,5.18c1.01,0.31,1.84,0.66,2.48,1.04c1.94,1.13,2.92,2.82,2.92,5.08
				c0,2.21-0.85,3.97-2.56,5.27c-1.7,1.31-3.98,1.96-6.84,1.96c-1.03,0-2.34-0.06-3.92-0.18s-2.75-0.18-3.49-0.18
				c-0.65,0-1.26,0.04-1.84,0.11L194,217.5c-0.05,0-0.13,0.01-0.25,0.04c-0.12,0-0.2,0-0.25,0c-1.03-0.02-1.55-0.46-1.55-1.3
				c0-0.77,0.37-1.15,1.12-1.15c0.19,0,0.52,0.04,0.97,0.11c0.31,0.05,0.56,0.07,0.76,0.07c1.22,0,1.84-0.89,1.84-2.66v-14.47
				c0-1.8-0.61-2.7-1.84-2.7c-0.22,0-0.47,0.02-0.76,0.07c-0.43,0.07-0.76,0.11-0.97,0.11c-0.74,0-1.12-0.38-1.12-1.15
				c0-0.84,0.55-1.26,1.66-1.26h0.47l1.76,0.25c0.5,0.07,1.19,0.11,2.05,0.11c0.91,0,2.21-0.07,3.89-0.22
				c1.13-0.1,2.34-0.14,3.64-0.14c2.42,0,4.31,0.51,5.67,1.53C212.44,195.75,213.12,197.18,213.12,199z M199.33,200.55
				c0,1.27,0.11,2.06,0.34,2.36c0.23,0.3,0.86,0.45,1.89,0.45h2.02c4.25,0,6.37-1.38,6.37-4.14c0-2.52-1.75-3.78-5.26-3.78
				c-2.45,0-3.95,0.16-4.52,0.47c-0.56,0.31-0.85,1.12-0.85,2.41V200.55z M199.33,207.85v4c0,1.56,0.26,2.52,0.79,2.88
				c0.53,0.36,1.97,0.54,4.32,0.54c4.49,0,6.73-1.68,6.73-5.04c0-3.1-2.16-4.64-6.48-4.64h-2.99c-1.3,0-2.04,0.29-2.23,0.86
				C199.38,206.74,199.33,207.21,199.33,207.85z"/>
			<path class="st2" d="M227.44,218.15c-3.05,0-5.44-1.12-7.18-3.37c-1.74-2.24-2.61-5.33-2.61-9.27c0-4.01,0.91-7.17,2.72-9.49
				c1.81-2.32,4.29-3.47,7.43-3.47c3,0,5.37,1.11,7.11,3.33c1.74,2.22,2.61,5.23,2.61,9.02c0,4.1-0.9,7.34-2.7,9.7
				C233.02,216.97,230.56,218.15,227.44,218.15z M227.73,195.22c-4.42,0-6.71,3.3-6.88,9.9v0.54c0,3.14,0.58,5.57,1.73,7.29
				c1.15,1.72,2.78,2.57,4.9,2.57c2.16,0,3.85-0.94,5.08-2.81c1.22-1.87,1.84-4.45,1.84-7.74c0-3.14-0.58-5.56-1.73-7.24
				C231.51,196.06,229.87,195.22,227.73,195.22z"/>
			<path class="st2" d="M251.38,194.93c-2.16,0-3.91,0.91-5.26,2.72c-1.34,1.81-2.1,4.28-2.27,7.4c1.51-2.62,4.01-3.92,7.49-3.92
				c2.62,0,4.75,0.77,6.41,2.3c1.66,1.54,2.48,3.5,2.48,5.9c0,2.57-0.89,4.68-2.66,6.34c-1.78,1.66-4.06,2.48-6.84,2.48
				c-3.07,0-5.49-1.02-7.25-3.06s-2.65-4.82-2.65-8.35c0-4.34,0.97-7.79,2.92-10.35c1.94-2.56,4.56-3.83,7.85-3.83
				c2.02,0,3.73,0.5,5.15,1.51s2.12,2.23,2.12,3.67c0,0.67-0.23,1.25-0.7,1.73c-0.47,0.48-1.01,0.72-1.64,0.72
				c-0.5,0-0.94-0.19-1.31-0.56c-0.37-0.37-0.56-0.82-0.56-1.35c0-0.72,0.34-1.2,1.01-1.44
				C254.95,195.57,253.52,194.93,251.38,194.93z M250.84,203.57c-1.94,0-3.48,0.53-4.61,1.6c-1.13,1.07-1.69,2.51-1.69,4.34
				c0,1.87,0.57,3.37,1.71,4.48s2.66,1.67,4.55,1.67c1.85,0,3.35-0.58,4.52-1.73s1.75-2.64,1.75-4.46c0-1.78-0.57-3.2-1.71-4.28
				C254.22,204.11,252.71,203.57,250.84,203.57z"/>
			<path class="st2" d="M267.01,194.72l-0.07,0.4c0.6-0.96,1.14-1.61,1.62-1.94c0.48-0.33,1.13-0.5,1.94-0.5
				c1.18,0,2.56,0.61,4.14,1.84c1.78,1.37,3.14,2.05,4.1,2.05c1.01,0,1.63-0.35,1.87-1.04h-0.29c-0.34,0-0.64-0.15-0.92-0.44
				c-0.28-0.29-0.41-0.62-0.41-0.98c0-0.46,0.17-0.86,0.52-1.18c0.35-0.33,0.76-0.49,1.24-0.49c1.58,0,2.38,1.07,2.38,3.21
				c0,1.59-0.4,2.99-1.19,4.19c-0.5,0.75-1.04,1.4-1.62,1.95c-0.26,0.26-0.79,0.75-1.58,1.44c-1.63,1.42-2.75,2.73-3.35,3.93
				c-0.86,1.71-1.3,3.78-1.3,6.21c0-0.05,0.01,0.22,0.04,0.79c0.05,1.16,0.07,1.67,0.07,1.55c0,1.52-0.6,2.27-1.8,2.27
				c-1.25,0-1.87-0.98-1.87-2.95c0-3.1,0.58-5.8,1.73-8.1c0.94-1.87,2.93-4.06,5.98-6.55c1.25-1.03,1.96-1.88,2.12-2.56
				c-0.82,0.7-1.86,1.04-3.11,1.04c-1.54,0-3.05-0.55-4.52-1.66l-1.48-1.12c-0.53-0.38-1.12-0.58-1.77-0.58
				c-1.54,0-2.32,0.98-2.32,2.95c0,0.6,0.06,1.14,0.17,1.62c0.2,0.84,0.3,1.46,0.3,1.87c0,0.41-0.14,0.76-0.41,1.04
				c-0.28,0.29-0.62,0.43-1.03,0.43c-0.96,0-1.44-0.52-1.44-1.55c0-0.41,0.05-1.03,0.16-1.87c0.11-0.84,0.16-1.49,0.16-1.94
				c0-0.67-0.04-1.39-0.11-2.16c-0.07-0.77-0.11-1.44-0.11-2.02c0-0.98,0.42-1.48,1.26-1.48c0.7,0,1.04,0.42,1.04,1.26
				C267.15,193.84,267.1,194.19,267.01,194.72z"/>
			<path class="st2" d="M37.4,255.28c0,1.41,0.14,2.24,0.43,2.51c0.22,0.21,0.5,0.35,0.85,0.39c0.35,0.05,1.13,0.07,2.36,0.07h3.17
				c1.66,0,2.76-0.22,3.31-0.66c0.55-0.44,0.83-1.32,0.83-2.64c0-0.36-0.01-0.77-0.04-1.24c-0.05-0.92-0.07-1.48-0.07-1.67
				c0-1.04,0.42-1.56,1.26-1.56c1.01,0,1.51,0.48,1.51,1.44c0,0.29-0.01,0.52-0.04,0.68l-0.25,1.84c-0.07,0.53-0.11,1.08-0.11,1.66
				c0,0.34,0.03,0.83,0.09,1.49c0.06,0.66,0.09,1.16,0.09,1.49c0,1.08-0.61,1.62-1.84,1.62c-0.24,0-0.79-0.04-1.66-0.13
				c-0.58-0.04-1.46-0.08-2.66-0.13h-2.7h-5.76c-0.58,0-1.54,0.05-2.88,0.14c-0.19,0-0.52,0.02-0.99,0.05
				c-0.47,0.04-0.83,0.05-1.1,0.05c-1.01,0-1.51-0.43-1.51-1.3c0-0.77,0.37-1.15,1.12-1.15c0.19,0,0.48,0.04,0.86,0.11
				c0.38,0.07,0.67,0.11,0.86,0.11c1.22,0,1.84-0.9,1.84-2.7v-14.44c0-1.78-0.61-2.66-1.84-2.66c-0.34,0-0.59,0.02-0.76,0.07
				c-0.38,0.07-0.71,0.11-0.97,0.11c-0.31,0-0.58-0.11-0.79-0.34c-0.22-0.23-0.32-0.51-0.32-0.85c0-0.84,0.52-1.26,1.55-1.26
				c0.14,0,0.32,0.01,0.54,0.04l1.91,0.22c1.06,0.12,1.84,0.18,2.34,0.18c0.62,0,1.39-0.06,2.3-0.18l1.66-0.22
				c0.19-0.02,0.35-0.04,0.47-0.04c1.08,0,1.62,0.42,1.62,1.26c0,0.34-0.11,0.62-0.32,0.85c-0.22,0.23-0.48,0.34-0.79,0.34
				c-0.24,0-0.56-0.04-0.97-0.11c-0.17-0.05-0.42-0.07-0.76-0.07c-1.22,0-1.84,0.88-1.84,2.65V255.28z"/>
			<path class="st2" d="M56.27,248.28c0.62-0.48,1.46-0.91,2.52-1.3c-1.32-0.74-2.22-1.46-2.7-2.14c-0.48-0.68-0.72-1.57-0.72-2.65
				c0-1.82,0.77-3.35,2.32-4.59c1.55-1.24,3.45-1.85,5.71-1.85s4.16,0.62,5.71,1.85c1.55,1.24,2.32,2.77,2.32,4.59
				c0,1.08-0.25,1.96-0.74,2.65c-0.49,0.68-1.39,1.4-2.68,2.14c1.01,0.38,1.84,0.82,2.48,1.3c1.68,1.27,2.52,3.04,2.52,5.29
				c0,2.3-0.88,4.18-2.63,5.62c-1.75,1.44-4.04,2.16-6.88,2.16c-2.95,0-5.32-0.71-7.09-2.12c-1.78-1.42-2.66-3.3-2.66-5.65
				C53.75,251.34,54.58,249.58,56.27,248.28z M63.54,248.35c-2.06,0-3.68,0.46-4.84,1.39c-1.16,0.92-1.75,2.19-1.75,3.8
				c0,1.56,0.59,2.83,1.78,3.8c1.19,0.97,2.74,1.46,4.66,1.46c1.92,0,3.47-0.49,4.66-1.46c1.19-0.97,1.78-2.24,1.78-3.8
				c0-1.56-0.58-2.81-1.73-3.76C66.96,248.83,65.43,248.35,63.54,248.35z M63.39,238.31c-1.44,0-2.62,0.37-3.55,1.1
				c-0.92,0.73-1.39,1.66-1.39,2.79c0,1.01,0.46,1.83,1.37,2.47s2.1,0.95,3.56,0.95s2.65-0.32,3.55-0.95
				c0.9-0.64,1.35-1.47,1.35-2.5c0-1.13-0.46-2.05-1.39-2.77C65.98,238.67,64.81,238.31,63.39,238.31z"/>
			<path class="st2" d="M85.14,259.01c2.26,0,4.04-0.89,5.36-2.68c1.32-1.79,2.02-4.24,2.09-7.36c-1.34,2.45-3.73,3.67-7.16,3.67
				c-2.5,0-4.52-0.75-6.08-2.25c-1.56-1.5-2.34-3.45-2.34-5.85c0-2.52,0.86-4.61,2.57-6.28c1.72-1.67,3.88-2.5,6.5-2.5
				c2.98,0,5.32,1.05,7.02,3.15c1.7,2.1,2.56,4.99,2.56,8.66c0,4.3-0.95,7.67-2.84,10.12s-4.51,3.67-7.85,3.67
				c-2.11,0-3.91-0.5-5.38-1.51s-2.21-2.24-2.21-3.71c0-0.7,0.22-1.28,0.67-1.75c0.44-0.47,0.99-0.7,1.64-0.7
				c0.53,0,0.98,0.17,1.37,0.52c0.38,0.35,0.58,0.76,0.58,1.24c0,0.7-0.35,1.21-1.04,1.55C81.31,258.34,82.83,259.01,85.14,259.01z
				 M86.15,238.31c-1.8,0-3.26,0.56-4.37,1.69c-1.12,1.13-1.67,2.59-1.67,4.39c0,1.75,0.53,3.14,1.58,4.18
				c1.06,1.03,2.47,1.55,4.25,1.55c1.87,0,3.34-0.52,4.41-1.55c1.07-1.03,1.6-2.44,1.6-4.21c0-1.82-0.53-3.29-1.6-4.39
				C89.27,238.86,87.87,238.31,86.15,238.31z"/>
			<path class="st2" d="M118.26,239.1l5.54,18.22l6.08-19.4c0.31-1.01,0.85-1.51,1.62-1.51h0.18c0.24,0,0.55,0.04,0.94,0.11
				c0.48,0.12,0.79,0.18,0.94,0.18c0.38,0.05,0.91,0.07,1.58,0.07c0.72,0,1.28-0.04,1.69-0.11l1.26-0.22
				c0.07-0.02,0.22-0.04,0.43-0.04c1.1,0,1.66,0.42,1.66,1.26c0,0.77-0.38,1.15-1.15,1.15c-0.19,0-0.47-0.03-0.85-0.09
				c-0.37-0.06-0.65-0.09-0.85-0.09c-1.22,0-1.84,0.9-1.84,2.7v2.52v3.17v3.06v5.69c0,1.8,0.6,2.7,1.8,2.7
				c0.24,0,0.5-0.04,0.79-0.11c0.53-0.05,0.84-0.07,0.94-0.07c0.77,0,1.15,0.38,1.15,1.15c0,0.86-0.52,1.3-1.55,1.3
				c0.05,0-0.13-0.02-0.54-0.07c-1.66-0.19-3.06-0.29-4.21-0.29c-1.13,0-2.21,0.08-3.24,0.25c-0.43,0.07-0.82,0.11-1.15,0.11
				c-0.94,0-1.4-0.4-1.4-1.21c0-0.83,0.48-1.24,1.45-1.24c0.24,0,0.42,0.02,0.54,0.05c0.53,0.06,0.85,0.1,0.94,0.1
				c0.87,0,1.41-0.9,1.63-2.7c0.05-0.38,0.07-1.6,0.07-3.67c0-0.79,0.02-1.94,0.07-3.45v-3.23v-6.36c0-0.14-0.06-0.22-0.18-0.22
				c-0.07,0-0.14,0.07-0.22,0.22l-6.62,20.52c-0.29,0.91-0.96,1.37-2.02,1.37c-0.62,0-1.09-0.09-1.39-0.27
				c-0.3-0.18-0.53-0.54-0.7-1.1l-6.52-20.52c-0.07-0.14-0.16-0.22-0.25-0.22c-0.1,0-0.14,0.07-0.14,0.21l0.22,16.65
				c0.02,1.74,0.5,2.61,1.44,2.61c0.26,0,0.62,0,1.08,0h0.43c0.94,0,1.4,0.41,1.4,1.22c0,0.82-0.48,1.22-1.44,1.22
				c-0.17,0-0.42-0.02-0.76-0.07c-0.53-0.07-1.09-0.16-1.69-0.25c-0.48-0.07-1.09-0.11-1.84-0.11c-1.32,0-2.17,0.04-2.56,0.11
				l-1.51,0.29c-0.05,0-0.12,0.01-0.22,0.04c-0.1,0-0.17,0-0.22,0c-1.1,0-1.66-0.42-1.66-1.26c0-0.34,0.11-0.62,0.32-0.85
				c0.22-0.23,0.48-0.34,0.79-0.34c0.26,0,0.58,0.04,0.94,0.11c0.36,0.07,0.62,0.11,0.79,0.11c1.22,0,1.84-0.9,1.84-2.7v-14.47
				c0-1.8-0.61-2.7-1.84-2.7c-0.19,0-0.48,0.03-0.86,0.09c-0.38,0.06-0.67,0.09-0.86,0.09c-0.74,0-1.12-0.38-1.12-1.15
				c0-0.84,0.54-1.26,1.62-1.26c0.1,0,0.25,0.01,0.47,0.04l1.26,0.14c0.62,0.07,1.21,0.11,1.76,0.11c0.46,0,1.07-0.05,1.85-0.14
				c0.78-0.1,1.35-0.14,1.71-0.14c0.94,0,1.56,0.59,1.87,1.76L118.26,239.1z"/>
			<path class="st2" d="M152.17,261.35c-3.05,0-5.44-1.12-7.18-3.37c-1.74-2.24-2.61-5.33-2.61-9.27c0-4.01,0.91-7.17,2.72-9.49
				c1.81-2.32,4.29-3.47,7.43-3.47c3,0,5.37,1.11,7.11,3.33c1.74,2.22,2.61,5.23,2.61,9.02c0,4.1-0.9,7.34-2.7,9.7
				C157.75,260.17,155.29,261.35,152.17,261.35z M152.46,238.42c-4.42,0-6.71,3.3-6.88,9.9v0.54c0,3.14,0.58,5.57,1.73,7.29
				c1.15,1.72,2.78,2.57,4.9,2.57c2.16,0,3.85-0.94,5.08-2.81c1.22-1.87,1.84-4.45,1.84-7.74c0-3.14-0.58-5.56-1.73-7.24
				C156.24,239.26,154.59,238.42,152.46,238.42z"/>
			<path class="st2" d="M176.11,238.13c-2.16,0-3.91,0.91-5.26,2.72c-1.34,1.81-2.1,4.28-2.27,7.4c1.51-2.62,4.01-3.92,7.49-3.92
				c2.62,0,4.75,0.77,6.41,2.3c1.66,1.54,2.48,3.5,2.48,5.9c0,2.57-0.89,4.68-2.66,6.34c-1.78,1.66-4.06,2.48-6.84,2.48
				c-3.07,0-5.49-1.02-7.25-3.06s-2.65-4.82-2.65-8.35c0-4.34,0.97-7.79,2.92-10.35c1.94-2.56,4.56-3.83,7.85-3.83
				c2.02,0,3.73,0.5,5.15,1.51s2.12,2.23,2.12,3.67c0,0.67-0.23,1.25-0.7,1.73c-0.47,0.48-1.01,0.72-1.64,0.72
				c-0.5,0-0.94-0.19-1.31-0.56c-0.37-0.37-0.56-0.82-0.56-1.35c0-0.72,0.34-1.2,1.01-1.44
				C179.67,238.77,178.24,238.13,176.11,238.13z M175.57,246.77c-1.94,0-3.48,0.53-4.61,1.6c-1.13,1.07-1.69,2.51-1.69,4.34
				c0,1.87,0.57,3.37,1.71,4.48s2.66,1.67,4.55,1.67c1.85,0,3.35-0.58,4.52-1.73s1.75-2.64,1.75-4.46c0-1.78-0.57-3.2-1.71-4.28
				C178.95,247.31,177.44,246.77,175.57,246.77z"/>
			<path class="st2" d="M197.02,259.01c2.26,0,4.04-0.89,5.36-2.68c1.32-1.79,2.02-4.24,2.09-7.36c-1.34,2.45-3.73,3.67-7.16,3.67
				c-2.5,0-4.52-0.75-6.08-2.25c-1.56-1.5-2.34-3.45-2.34-5.85c0-2.52,0.86-4.61,2.57-6.28c1.71-1.67,3.88-2.5,6.5-2.5
				c2.98,0,5.32,1.05,7.02,3.15c1.7,2.1,2.56,4.99,2.56,8.66c0,4.3-0.95,7.67-2.84,10.12c-1.9,2.45-4.51,3.67-7.85,3.67
				c-2.11,0-3.91-0.5-5.38-1.51c-1.48-1.01-2.21-2.24-2.21-3.71c0-0.7,0.22-1.28,0.67-1.75s0.99-0.7,1.64-0.7
				c0.53,0,0.98,0.17,1.37,0.52c0.38,0.35,0.58,0.76,0.58,1.24c0,0.7-0.35,1.21-1.04,1.55C193.2,258.34,194.72,259.01,197.02,259.01
				z M198.03,238.31c-1.8,0-3.26,0.56-4.37,1.69c-1.12,1.13-1.67,2.59-1.67,4.39c0,1.75,0.53,3.14,1.58,4.18
				c1.06,1.03,2.47,1.55,4.25,1.55c1.87,0,3.34-0.52,4.41-1.55c1.07-1.03,1.6-2.44,1.6-4.21c0-1.82-0.53-3.29-1.6-4.39
				C201.16,238.86,199.76,238.31,198.03,238.31z"/>
		</g>
	</g>
</g>
<g id="Layer_7">
	<g>
		<path class="st9" d="M94.06,152.74c-0.64-0.72-1.28-1.43-1.93-2.15c0.02-0.03,0.03-0.05,0.05-0.07c0.76-0.69,1.53-1.39,2.29-2.08
			c0.02-0.02,0.04-0.03,0.06-0.04c0.06,0.03,0.1,0.09,0.14,0.13c0.54,0.6,1.09,1.21,1.63,1.82c0.04,0.04,0.08,0.08,0.13,0.13
			c0.19-0.13,0.37-0.27,0.56-0.4c0.19-0.13,0.38-0.25,0.57-0.37c0.19-0.12,0.39-0.23,0.59-0.34c0.2-0.11,0.4-0.22,0.61-0.31
			c0.21-0.1,0.42-0.2,0.64-0.29c0.21-0.09,0.42-0.17,0.64-0.25c0.21-0.08,0.43-0.15,0.65-0.22c0.22-0.07,0.44-0.13,0.66-0.19
			c0.22-0.06,0.44-0.11,0.67-0.16c0.22-0.05,0.45-0.08,0.67-0.13c0.04-0.06,0.02-0.13,0.02-0.19c0-0.72,0-1.44,0-2.16
			c0-0.06,0-0.13,0-0.2c0.05-0.01,0.09-0.02,0.12-0.02c0.22,0,0.43,0,0.65,0c0.76,0,1.51,0,2.27,0c0.06,0,0.13,0,0.18,0
			c0.05,0.06,0.04,0.12,0.04,0.18c0,0.46,0,0.91,0,1.37c0,0.24,0,0.48,0,0.72c0,0.06,0,0.12,0,0.18c0.16,0.04,0.32,0.03,0.48,0.06
			c0.16,0.03,0.31,0.04,0.47,0.07c0.16,0.02,0.31,0.05,0.47,0.08c0.16,0.03,0.31,0.06,0.46,0.1c0.15,0.03,0.31,0.07,0.46,0.11
			s0.31,0.08,0.46,0.13c0.15,0.05,0.3,0.09,0.45,0.14c0.15,0.05,0.3,0.1,0.45,0.16c0.15,0.06,0.29,0.11,0.44,0.17
			c0.15,0.06,0.29,0.12,0.43,0.19c0.14,0.07,0.29,0.13,0.43,0.2c0.14,0.07,0.28,0.14,0.42,0.22c0.14,0.08,0.28,0.15,0.41,0.23
			c0.14,0.08,0.27,0.16,0.41,0.25c0.13,0.08,0.27,0.17,0.4,0.26c0.13,0.09,0.26,0.18,0.39,0.27c0.13,0.09,0.25,0.19,0.39,0.29
			c0.41-0.37,0.81-0.74,1.22-1.1c0.4-0.36,0.8-0.72,1.2-1.09c0.73,0.82,1.45,1.62,2.17,2.42c-0.03,0.07-0.09,0.1-0.14,0.15
			c-0.67,0.61-1.33,1.21-2,1.82c-0.04,0.04-0.08,0.08-0.13,0.12c0.04,0.05,0.07,0.09,0.1,0.14c1.24,1.61,2.1,3.41,2.57,5.4
			c0.14,0.61,0.24,1.23,0.3,1.85c0.05,0.53,0.07,1.06,0.06,1.6c-0.05,2.33-0.63,4.52-1.76,6.56c-1.68,3.03-4.44,5.34-7.71,6.46
			c-0.79,0.27-1.61,0.46-2.44,0.59c-0.95,0.14-1.91,0.18-2.87,0.12c-2.47-0.16-4.74-0.91-6.79-2.28c-2.95-1.98-4.89-4.7-5.82-8.13
			c-0.18-0.66-0.3-1.32-0.37-2c-0.1-0.86-0.12-1.72-0.05-2.58c0.22-2.9,1.23-5.48,3.04-7.76c0.03-0.04,0.06-0.08,0.1-0.13
			C94.05,152.77,94.05,152.77,94.06,152.74z M104.81,151.11c-0.12,0-0.25-0.01-0.37,0c-0.23,0.01-0.47,0.03-0.7,0.05
			c-0.69,0.06-1.37,0.2-2.03,0.41c-2.56,0.82-4.54,2.39-5.92,4.69c-0.97,1.62-1.45,3.38-1.48,5.26c0,0.32,0,0.63,0.03,0.95
			c0.04,0.57,0.13,1.14,0.27,1.7c0.59,2.37,1.84,4.31,3.76,5.82c1.7,1.34,3.65,2.07,5.82,2.21c0.61,0.04,1.23,0.02,1.84-0.05
			c0.69-0.08,1.37-0.23,2.04-0.45c4.21-1.39,7.16-5.33,7.24-9.82c0.01-0.83-0.06-1.65-0.23-2.46c-0.38-1.72-1.13-3.25-2.27-4.6
			C110.84,152.52,107.98,151.12,104.81,151.11z"/>
		<path class="st9" d="M100.16,144.9c-0.02-0.16-0.02-3,0-3.17c0.03,0,0.06-0.01,0.1-0.01c0.05,0,0.09,0,0.14,0c2.63,0,5.27,0,7.9,0
			c0.07,0,0.15-0.01,0.22,0.01c0.01,0.01,0.01,0.02,0.02,0.02c0,0,0.01,0.01,0.01,0.02c0,1,0,2,0,3c0,0.03,0,0.07-0.01,0.11
			c-0.03,0.01-0.06,0.02-0.1,0.02c-0.05,0-0.09,0-0.14,0c-2.64,0-5.28,0-7.92,0C100.31,144.9,100.24,144.9,100.16,144.9z"/>
		<path class="st9" d="M113.07,161.11c0.02,0.11,0.01,0.21,0.01,0.31c-0.15,0.03-0.28,0.06-0.42,0.08
			c-0.91,0.17-1.83,0.34-2.74,0.51c-0.85,0.16-1.69,0.32-2.54,0.47c-0.19,0.04-0.38,0.07-0.57,0.11c-0.06,0.01-0.1,0.03-0.12,0.09
			c-0.02,0.04-0.04,0.08-0.07,0.12c-0.35,0.59-0.86,0.96-1.54,1.04c-0.75,0.09-1.37-0.16-1.86-0.73c-0.73-0.86-0.66-2.16,0.14-2.96
			c0.91-0.9,2.4-0.77,3.15,0.28c0.06,0.15,0.18,0.18,0.34,0.19c0.4,0.02,0.81,0.06,1.21,0.09c0.36,0.03,0.72,0.05,1.09,0.08
			c0.4,0.03,0.81,0.06,1.21,0.09c0.36,0.03,0.71,0.05,1.07,0.08c0.41,0.03,0.82,0.06,1.23,0.09c0.09,0.01,0.18,0.01,0.26,0.02
			C112.95,161.09,113.01,161.1,113.07,161.11z"/>
	</g>
</g>
<g id="ombre">
	<path class="st10" d="M130.94,125.18c-10.28-7.58-20.52-15.18-30.8-22.77c-0.54-0.4-0.78-0.77-0.67-1.36
		c0.24-1.25,0.03-2.49-0.67-3.64c-1.5-2.47-3.98-4.35-6.93-5.87c-3.25-1.67-6.99-2.29-10.91-2.35c-0.74-0.01-1.33-0.12-1.86-0.55
		c-1.01-0.82-2.06-1.62-3.18-2.35c-0.78-0.51-1.64-1.03-2.59-1.3c-2.71-0.76-5.06-0.15-7.04,1.34
		c-6.72,5.02-13.44,10.03-20.16,15.05c-0.25,0.18-0.48,0.38-0.71,0.58c-2.04,1.81-2.08,4.24,0,6.03c1.26,1.09,2.67,2.08,3.97,3.14
		c0.31,0.25,0.56,0.62,0.63,0.95c0.54,2.72,1.7,5.24,4.13,7.36c5.07,4.42,10.77,8.31,17.47,11.35c0.6,0.27,1.15,0.67,1.57,1.09
		c1.84,1.88,5.3,2.67,8.24,1.88c1.88-0.51,3.27-1.41,4.27-2.73c2.14,1.44,4.56,1.92,7.29,1.31c2.75-0.61,4.41-2.04,5.24-4.07
		c2.25,0.96,4.54,1.18,6.91,0.48c2.36-0.7,3.77-2.03,4.39-3.91c0.28,0.2,0.46,0.31,0.62,0.44c3.55,2.63,7.1,5.26,10.66,7.88
		c0.48,0.35,0.99,0.68,1.53,0.98c3.13,1.71,7.83,1.29,10.05-0.89c0.87-0.86,1.37-1.8,1.73-2.81c0-0.44,0-0.87,0-1.31
		C133.7,127.53,132.48,126.31,130.94,125.18z"/>
</g>
<g id="main">
	<g>
		<path class="st11" d="M145.74,111.54c-0.35,1.3-0.82,2.52-1.65,3.64c-2.12,2.82-6.62,3.37-9.62,1.16
			c-0.52-0.38-1.01-0.81-1.46-1.26c-3.41-3.39-6.8-6.79-10.2-10.19c-0.16-0.16-0.32-0.31-0.59-0.56c-0.59,2.42-1.94,4.15-4.2,5.05
			c-2.27,0.9-4.46,0.63-6.62-0.62c-0.8,2.63-2.39,4.48-5.02,5.27c-2.61,0.79-4.93,0.17-6.97-1.69c-0.96,1.7-2.29,2.88-4.09,3.53
			c-2.81,1.03-6.13,0-7.89-2.43c-0.4-0.55-0.92-1.06-1.5-1.42c-6.42-3.93-11.88-8.96-16.73-14.67c-2.33-2.74-3.44-6-3.96-9.51
			c-0.06-0.44-0.31-0.91-0.6-1.23c-1.24-1.38-2.59-2.66-3.8-4.06c-1.99-2.31-1.96-5.45,0-7.79c0.22-0.26,0.44-0.51,0.68-0.75
			c6.43-6.49,12.87-12.97,19.3-19.46c1.9-1.92,4.15-2.71,6.74-1.73c0.91,0.34,1.73,1.02,2.48,1.68c1.07,0.94,2.08,1.98,3.04,3.04
			c0.51,0.56,1.07,0.7,1.78,0.71c3.75,0.08,7.33,0.88,10.44,3.04c2.82,1.95,5.19,4.39,6.63,7.58c0.67,1.49,0.87,3.09,0.64,4.7
			c-0.11,0.76,0.12,1.24,0.64,1.76c9.83,9.81,19.64,19.64,29.48,29.44c1.47,1.46,2.64,3.04,3.03,5.11
			C145.74,110.41,145.74,110.98,145.74,111.54z M83.85,106.78c0.04-0.03,0.08-0.07,0.12-0.1c-0.11-0.25-0.2-0.5-0.32-0.74
			c-1.32-2.73-2.66-5.45-3.96-8.19c-0.34-0.71-0.62-1.44-0.84-2.2c-1.26-4.47,2.18-8.98,6.83-8.82c1.3,0.04,2.57,0.57,3.91,0.88
			c1.44-2.72,3.03-3.56,5.38-4.22c0-0.26,0-0.53,0-0.8c-0.01-2.61-0.1-5.23,0.01-7.84c0.06-1.44,0.39-2.89,0.73-4.3
			c0.23-0.99,1.18-1.47,2-1.21c0.84,0.27,1.24,1.13,0.99,2.12c-0.15,0.6-0.33,1.2-0.39,1.81c-0.61,6.49-0.14,12.91,1.27,19.26
			c0.26,1.16,0.67,2.35,1.27,3.36c1.29,2.18,3.81,2.1,5.05-0.09c0.29-0.51,0.55-1.06,0.67-1.63c0.48-2.31,1.01-4.61,1.33-6.94
			c0.62-4.53,1.16-9.08,1.62-13.63c0.1-1.03-0.04-2.18-0.42-3.13c-1.19-2.89-3.28-5.1-5.91-6.72c-2.77-1.71-5.89-2.29-9.13-2.22
			c-1.01,0.02-1.77-0.28-2.45-1.03c-1.13-1.25-2.33-2.44-3.5-3.65c-1.64-1.68-3.31-1.7-4.98-0.04
			c-6.49,6.48-12.97,12.96-19.44,19.44c-1.55,1.56-1.57,3.28-0.05,4.9c1.12,1.19,2.23,2.38,3.4,3.51c0.85,0.82,1.29,1.76,1.42,2.94
			c0.33,2.9,1.16,5.66,3.18,7.83c2.6,2.8,5.31,5.5,8.06,8.15C80.98,104.71,82.47,105.7,83.85,106.78z M112.22,78.86
			c-0.4,2.94-0.75,5.69-1.16,8.44c-0.09,0.62,0.02,1.03,0.47,1.48c7.96,7.93,15.91,15.89,23.86,23.83c0.26,0.26,0.52,0.52,0.76,0.79
			c1.54,1.75,4.49,1.5,5.71-0.5c1.13-1.85,0.83-3.8-0.88-5.49c-9.34-9.3-18.69-18.59-28.03-27.89
			C112.75,79.34,112.55,79.16,112.22,78.86z M93.3,112.95c0.36-0.05,0.73-0.07,1.07-0.17c2.31-0.68,3.25-2.82,2.16-5.08
			c-2.23-4.66-4.49-9.29-6.75-13.93c-0.34-0.71-0.67-1.43-1.08-2.09c-1.08-1.71-3.13-2.22-4.85-1.27c-1.86,1.02-2.64,3.05-1.77,4.86
			c2.35,4.91,4.72,9.81,7.11,14.69C90.02,111.64,91.19,112.96,93.3,112.95z M95.28,86.7c-2.52,0.54-3.86,3.09-2.76,5.29
			c2.83,5.69,5.68,11.37,8.54,17.04c0.97,1.91,3.04,2.65,4.82,1.77c2-0.98,2.84-3.14,1.95-5.09c-0.63-1.38-1.34-2.72-1.95-4.1
			c-0.25-0.57-0.56-0.73-1.19-0.75c-3.16-0.08-5.81-1.32-7.29-4.17c-0.73-1.4-0.92-3.1-1.24-4.69
			C95.79,90.25,95.56,88.47,95.28,86.7z M110.4,91.88c-0.47,2.33-0.99,4.33-2.25,6.06c-0.12,0.17-0.09,0.52,0,0.74
			c0.93,2.4,2.32,4.53,4,6.47c0.98,1.13,2.18,1.78,3.7,1.58c1.57-0.21,2.73-1.07,3.27-2.56c0.59-1.61,0.27-3.13-0.93-4.36
			c-2.02-2.07-4.09-4.1-6.12-6.15C111.55,93.14,111.05,92.58,110.4,91.88z"/>
		<path class="st2" d="M83.85,106.78c-1.38-1.09-2.86-2.07-4.12-3.28c-2.75-2.65-5.46-5.35-8.06-8.15
			c-2.02-2.17-2.86-4.94-3.18-7.83c-0.13-1.18-0.57-2.12-1.42-2.94c-1.17-1.13-2.29-2.33-3.4-3.51c-1.52-1.62-1.51-3.34,0.05-4.9
			c6.48-6.49,12.96-12.97,19.44-19.44c1.67-1.67,3.34-1.65,4.98,0.04c1.18,1.21,2.37,2.4,3.5,3.65c0.68,0.75,1.44,1.05,2.45,1.03
			c3.23-0.07,6.35,0.51,9.13,2.22c2.63,1.62,4.72,3.83,5.91,6.72c0.39,0.95,0.53,2.11,0.42,3.13c-0.46,4.55-1,9.1-1.62,13.63
			c-0.32,2.33-0.84,4.64-1.33,6.94c-0.12,0.56-0.38,1.12-0.67,1.63c-1.24,2.19-3.76,2.28-5.05,0.09c-0.6-1.02-1.01-2.2-1.27-3.36
			c-1.41-6.35-1.87-12.78-1.27-19.26c0.06-0.61,0.24-1.21,0.39-1.81c0.24-1-0.15-1.85-0.99-2.12c-0.82-0.26-1.77,0.22-2,1.21
			c-0.34,1.41-0.67,2.86-0.73,4.3c-0.11,2.61-0.02,5.22-0.01,7.84c0,0.27,0,0.55,0,0.8c-2.35,0.66-3.94,1.5-5.38,4.22
			c-1.34-0.32-2.62-0.84-3.91-0.88c-4.65-0.16-8.09,4.35-6.83,8.82c0.21,0.75,0.5,1.49,0.84,2.2c1.3,2.74,2.64,5.46,3.96,8.19
			c0.12,0.24,0.21,0.49,0.32,0.74C83.93,106.71,83.89,106.75,83.85,106.78z"/>
		<path class="st2" d="M112.22,78.86c0.33,0.3,0.53,0.48,0.73,0.67c9.34,9.29,18.69,18.59,28.03,27.89c1.7,1.69,2.01,3.64,0.88,5.49
			c-1.22,2-4.17,2.25-5.71,0.5c-0.24-0.27-0.5-0.53-0.76-0.79c-7.95-7.95-15.89-15.9-23.86-23.83c-0.45-0.45-0.56-0.86-0.47-1.48
			C111.47,84.55,111.82,81.8,112.22,78.86z"/>
		<path class="st2" d="M93.3,112.95c-2.12,0.01-3.28-1.31-4.11-3c-2.4-4.88-4.77-9.78-7.11-14.69c-0.87-1.81-0.08-3.84,1.77-4.86
			c1.73-0.95,3.77-0.43,4.85,1.27c0.42,0.66,0.74,1.38,1.08,2.09c2.26,4.64,4.52,9.28,6.75,13.93c1.08,2.27,0.15,4.41-2.16,5.08
			C94.03,112.88,93.66,112.9,93.3,112.95z"/>
		<path class="st2" d="M95.28,86.7c0.29,1.77,0.51,3.55,0.87,5.3c0.32,1.59,0.52,3.29,1.24,4.69c1.48,2.86,4.13,4.09,7.29,4.17
			c0.64,0.02,0.94,0.18,1.19,0.75c0.62,1.38,1.32,2.73,1.95,4.1c0.89,1.95,0.05,4.1-1.95,5.09c-1.78,0.88-3.85,0.14-4.82-1.77
			c-2.86-5.67-5.71-11.35-8.54-17.04C91.42,89.79,92.75,87.23,95.28,86.7z"/>
		<path class="st2" d="M110.4,91.88c0.65,0.69,1.15,1.25,1.68,1.79c2.04,2.05,4.11,4.07,6.12,6.15c1.2,1.24,1.51,2.75,0.93,4.36
			c-0.54,1.49-1.7,2.35-3.27,2.56c-1.53,0.2-2.72-0.45-3.7-1.58c-1.68-1.94-3.07-4.07-4-6.47c-0.09-0.22-0.12-0.58,0-0.74
			C109.4,96.21,109.93,94.21,110.4,91.88z"/>
	</g>
</g>
</svg>
